<?xml version="1.0" encoding="utf-8"?>
<!-- src: https://www.freepik.com/free-vector/college-project-concept-illustration_29808757.htm#query=education&position=0&from_view=author&uuid=d10dfb6f-3cfa-493c-8b16-e4d58c3db935 -->

<!-- Generator: Adobe Illustrator 24.1.2, SVG Export Plug-In . SVG Version: 6.00 Build 0)  -->
<svg version="1.1" xmlns="http://www.w3.org/2000/svg" xmlns:xlink="http://www.w3.org/1999/xlink" x="0px" y="0px"
	 viewBox="0 0 697.9 428.3" style="enable-background:new 0 0 697.9 428.3;" xml:space="preserve">
<style type="text/css">
	.st0{fill:#E6E6E6;}
	.st1{fill:#EBEBEB;}
	.st2{fill:#E0E0E0;}
	.st3{fill:#03ACFC;}
	.st4{opacity:0.9;fill:#FFFFFF;}
	.st5{fill:#F5F5F5;}
	.st6{fill:#263238;}
	.st7{opacity:0.2;fill:#FFFFFF;}
	.st8{opacity:0.3;}
	.st9{fill:#FFFFFF;}
	.st10{opacity:0.4;}
	.st11{opacity:0.2;fill:#FFFFFF;enable-background:new    ;}
	.st12{opacity:0.5;fill:#FFFFFF;enable-background:new    ;}
	.st13{opacity:0.7;fill:#FFFFFF;}
	.st14{fill:#FC8C04;}
	.st15{opacity:0.4;fill:#FFFFFF;}
	.st16{opacity:0.3;fill:#FFFFFF;}
	.st17{opacity:0.2;}
	.st18{fill:#263238;enable-background:new    ;}
	.st19{opacity:0.2;enable-background:new    ;}
	.st20{fill:#EBB373;}
	.st21{opacity:0.5;fill:#FFFFFF;}
	.st22{opacity:0.7;fill:#FFFFFF;enable-background:new    ;}
	.st23{fill:none;stroke:#000000;stroke-width:0;stroke-linecap:round;stroke-linejoin:round;}
	.st24{fill:#E4873E;}
	.st25{fill:#C15854;}
	.st26{fill:#EEC1BB;}
	.st27{fill:#CD877B;}
	.st28{fill:#D4827D;}
	.st29{fill:#895555;}
	.st30{fill:#6D3939;}
	.st31{opacity:0.6;enable-background:new    ;}
</style>
<g id="Background_complete">
	<g>
		<path class="st0" d="M329.1,37.3c0.1,0,0.3,0.1,0.3,0.3c0,0.1-0.1,0.2-0.1,0.2L306.1,50l-1.1,0.6l-11.8,6.2l-40.8,1.4
			c-0.1,0-0.3-0.1-0.3-0.3c0-0.1,0.1-0.2,0.1-0.2l35.6-18.7c0.3-0.2,0.7-0.3,1.1-0.3l12.8-0.4l1.2,0L329.1,37.3z"/>
		<path class="st1" d="M312.2,42c-0.8-1.3-10.6,0-22.2,3.1c-11.6,3.1-20.8,6.7-20.8,8.3l0,0l4.8,18c0.1,0.3,0.4,0.5,0.8,0.4
			c0,0,0,0,0,0l41.8-11.1c0.3-0.1,0.5-0.4,0.5-0.8c0,0,0,0,0,0L312.2,42L312.2,42z"/>
		<path class="st2" d="M308.7,56.2l1,3.8l-0.3,0.1l-0.8-2.3l0.4,2.4l-0.5,0.1l-0.9-2.3l0.4,2.4l-0.5,0.1l-0.9-2.3l0.4,2.4l-0.3,0.1
			l-1-3.8c-0.2-0.6,0.1-1.2,0.6-1.6l-4.6-17.2l1.2,0l4.5,17C308.1,55.2,308.6,55.6,308.7,56.2z"/>
	</g>
</g>
<g id="Background_simple">
	<g>
		<path class="st3" d="M284.3,28.1c-21.6,2.6-42.4,8.1-60.8,16.8c-21.7,10.2-43.9,26.1-37.4,46.9c12.1,38.4,70.2,39.1,58.6,64.9
			c-13.1,29.3-4.3,63.6,54.6,73.1c112,18.1,247.4-87.9,209.3-146.2C485,47.3,398.8,14.3,284.3,28.1z"/>
		<path class="st4" d="M284.3,28.1c-21.6,2.6-42.4,8.1-60.8,16.8c-21.7,10.2-43.9,26.1-37.4,46.9c12.1,38.4,70.2,39.1,58.6,64.9
			c-13.1,29.3-4.3,63.6,54.6,73.1c112,18.1,247.4-87.9,209.3-146.2C485,47.3,398.8,14.3,284.3,28.1z"/>
	</g>
</g>
<g id="Shadow">
	<g>
		<g>
			<path class="st5" d="M697.9,413.9c0,3.7-156.2,6.7-349,6.7s-349-3-349-6.7c0-3.7,156.2-6.7,349-6.7S697.9,410.2,697.9,413.9z"/>
		</g>
	</g>
</g>
<g id="Computer_case">
	<g>
		<path class="st6" d="M83.3,365.3l-4.4-0.6c0.8-5.5,5.4-15.9,17.1-15.9c13.9,0,20.9,8,21.6,16l-4.4,0.4c-0.5-6-6-12-17.2-12
			C85.2,353.2,83.4,364.9,83.3,365.3z"/>
		<path class="st6" d="M63.2,361.5h71.7c3.9,0,7.1,3.2,7.1,7.1v37.1c0,3.9-3.2,7.1-7.1,7.1H63.2c-3.9,0-7.1-3.2-7.1-7.1v-37.1
			C56.1,364.6,59.3,361.5,63.2,361.5z"/>
		<path class="st7" d="M63.2,361.5h71.7c3.9,0,7.1,3.2,7.1,7.1v37.1c0,3.9-3.2,7.1-7.1,7.1H63.2c-3.9,0-7.1-3.2-7.1-7.1v-37.1
			C56.1,364.6,59.3,361.5,63.2,361.5z"/>
		<path class="st6" d="M117.6,413.5c-60.7,0-63.6-41.6-63.6-42.1l2.5-4.8c0.1,1.5,4.9,42.5,61.2,42.5c23.2,0,43.2,0,45.2-4.4
			c1.8-3.9-6.9-13.9-20.9-30v-6.2c17.8,20.5,27.8,31.5,24.9,37.9C163.8,413.2,150.4,413.5,117.6,413.5z"/>
	</g>
</g>
<g id="Globe">
	<g id="freepik--Globe--inject-2_00000052814984545948395560000000029175632390898623_">
		<rect x="627" y="380.4" class="st6" width="5.6" height="18.4"/>
		<path class="st6" d="M629.7,383.3c-8.7,0-17.3-2.2-25-6.3l2.6-4.9c23.1,12.4,51.9,3.6,64.2-19.5c6-11.3,7.2-24.5,3.4-36.6
			c-1.5-4.8-3.8-9.4-6.7-13.5c-4.2-5.9-9.8-10.7-16.1-14.1l2.6-4.9c2.9,1.6,5.7,3.4,8.3,5.5c3.7,3,6.9,6.4,9.7,10.3
			c3.3,4.6,5.9,9.7,7.5,15.1c8.8,27.9-6.7,57.7-34.6,66.6C640.5,382.5,635.1,383.4,629.7,383.3L629.7,383.3z"/>
		<g class="st8">
			<path class="st9" d="M629.7,383.3c-8.7,0-17.3-2.2-25-6.3l2.6-4.9c23.1,12.4,51.9,3.6,64.2-19.5c6-11.3,7.2-24.5,3.4-36.6
				c-1.5-4.8-3.8-9.4-6.7-13.5c-4.2-5.9-9.8-10.7-16.1-14.1l2.6-4.9c2.9,1.6,5.7,3.4,8.3,5.5c3.7,3,6.9,6.4,9.7,10.3
				c3.3,4.6,5.9,9.7,7.5,15.1c8.8,27.9-6.7,57.7-34.6,66.6C640.5,382.5,635.1,383.4,629.7,383.3L629.7,383.3z"/>
		</g>
		<path class="st6" d="M602.9,381.7c-0.2,0-0.5-0.1-0.7-0.2c-0.7-0.4-0.9-1.2-0.6-1.9l53.7-100.1c0.4-0.7,1.2-0.9,1.9-0.6
			c0.7,0.4,0.9,1.2,0.6,1.9l0,0L604.1,381C603.9,381.4,603.4,381.7,602.9,381.7z"/>
		<g class="st10">
			<path class="st9" d="M602.9,381.7c-0.2,0-0.5-0.1-0.7-0.2c-0.7-0.4-0.9-1.2-0.6-1.9l53.7-100.1c0.4-0.7,1.2-0.9,1.9-0.6
				c0.7,0.4,0.9,1.2,0.6,1.9l0,0L604.1,381C603.9,381.4,603.4,381.7,602.9,381.7z"/>
		</g>
		<path class="st6" d="M619.5,397.4H640c1.4,0,2.5,1.1,2.5,2.5l0,0v4.6l0,0H617l0,0v-4.6C617,398.5,618.2,397.4,619.5,397.4z"/>
		<path class="st3" d="M631.8,289.4c22.6,1.2,39.9,20.4,38.8,43c-1.2,22.6-20.4,39.9-43,38.8c-22.6-1.2-39.9-20.4-38.8-43
			c0,0,0,0,0,0C590,305.6,609.3,288.3,631.8,289.4z"/>
		<path class="st11" d="M670.6,332.4c-1.2,22.6-20.4,39.9-42.9,38.7c-22.6-1.2-39.9-20.4-38.7-42.9c1.2-22.6,20.4-39.9,42.9-38.7
			c3.6,0.2,7.2,0.9,10.7,2c4.1,1.4,8,3.4,11.5,6C665.1,305.5,671.3,318.7,670.6,332.4z"/>
		<path class="st12" d="M653.6,297c-0.1,0-0.1-0.1-0.2-0.1c-0.1-0.1-0.2-0.2-0.4-0.3c-1.7-0.9-1.2,2.4-2.8,3.1
			c-1.6,0.7-4.4-0.6-4-1.6s-2.9-3.7-3.7-4.1c-1.4-0.5-3,0.2-3.5,1.6c-0.1,0.3-0.2,0.6-0.2,0.9c-0.1,2.8,1.4,4.5,1,5.3
			c-0.4,0.8-0.4,1.1-3.2,2.5c-2.8,1.4-4.9-0.4-6.6,1.2c-1.7,1.5,0.5,2.4-0.2,6.1c-0.7,3.7-1.7,1.1-3.7,1.5c-2,0.4-0.9-2.1-0.6-3.5
			c0.3-1.4-1.9-1.9-2.8-2c-0.9-0.1-3.3-0.4-3-3.3c0.3-2.9,0.1-5.6-3.8-5.4c-2,0.1-3.2-2.8-3.7-5.7c-10.5,5-18.3,14.2-21.7,25.3
			c0.2,0,0.4,0.3,0.7,1c0.9,2.3,1.8,4.7,3,6.1c1.1,1.1,1.4,2.8,0.9,4.3c-0.5,1.1-2.9,1.9-2.9,2.7c0,0.8-2.3,1.9-2.7,2.6
			c-0.1,0.2-0.2,0.3-0.4,0.3c1.4,11.2,7.5,21.4,16.6,28c1-2.6,2.8-4.7,4-4.8c2.5-0.1,10.2-1.4,7.4-4.8s-5.9-6.5-5.9-6.5
			c0.6-0.9,1.3-1.7,2-2.5c0.5-0.3-1-1.1,1.6-1.4c2.6-0.3,2.8-0.3,1.7-1.5s-2.9-0.3-1.7-1.9c1.2-1.6,2.5-2.8,3.8-1.1s0.5,2.7,0.9,3.2
			c0.4,0.5,4.3-0.3,4.3-0.3s1,1.4,0.6,1.7c-0.7,0.8-1.4,1.7-1.9,2.6c-0.3,0.9-0.8,1.7-1.5,2.3c-0.8,0.5,2.1,3.4,3,3.9
			c0.9,0.5,1.2,0.8,2,0.6c0.8-0.2,2.2-1.8,2.8-2.2s3.7,0.7,3.7,0.7c1.2,0.7,2.3,1.5,3.4,2.4c1.1,1.1,2.7,1.2,4,0.4
			c0.7-0.6,0.6-2.2,1.9-1.7c1.2,0.6,1.7,1.1,2.5,4.2c0.9,3,6,7.4,5.3,9.3c3.8-2.1,7.2-4.7,10.1-7.9c-3.6-1.2-5-2.6-5.5-3.4
			c-0.7-1-0.3-1,0.1-2.8s3.7-2.8,4.2-3.3c0.5-0.5,3.1-3.7,4.4-4c1.3-0.3,1.2-2,1.2-2s0.2,0.4,0.7-0.7c0.5-1.1,0-2.2,1.7-3.8
			c1.1-0.8,2.4-1.4,3.7-1.7c0.2-1.4,0.4-2.8,0.4-4.2c0.1-2.5,0-5-0.3-7.5l-4.4,1.7c-1,0-2.1-0.1-3.1-0.3c-0.5-0.3-2.8-1.8-4.6-0.9
			c-1.8,0.9-2-0.6-5.3-1.2c-3.4-0.6,1.7-5.3,2.4-6c0.8-0.7,0.9-0.3,3.2-1.5c2.3-1.1,1.9-2.9,1.9-2.9c-1.4-2-3-3.8-4.8-5.4
			c-2.2-1.7,0.9-1.9,6.4-3.5C659.5,302,656.7,299.3,653.6,297z M638.7,348.8c-0.8,1.2-1.9-0.2-1.9-0.2c-3.2-0.9-3.5-3.5-2.4-4.5
			c1.1-1,1.6-4.3,3.3-3c1.4,1,2.8,2,4.3,2.8c0,0,1.9-4.8,1.9-0.3c0.1,4.5,2.6,3.1,0.1,4.5C641.4,349.4,639.5,347.6,638.7,348.8
			L638.7,348.8z M651.1,350c0,1.1-0.1,2.3-0.4,3.4l-2.4,1.2c-1.8-1.5-1.1-3.7-0.1-3.9C649.2,350.5,651,348.7,651.1,350L651.1,350z
			 M646.7,315.4c0.6,1.2-1.3,2-3.4,5.1c-2.1,3.1-3.4,0.6-3.4,0.6s-4.3-3.4-2.9-4.9s0.3-3.5,2.4-4.6c1.3-0.7,2.5-0.1,3.7,1.2
			C644.4,314.1,646.1,314.2,646.7,315.4L646.7,315.4z"/>
		<path class="st11" d="M642.5,291.4c0.6,12.3-3.4,25.6-12,37c-9.6,12.6-22.9,20.3-36.2,22.3c-11.3-19.6-4.5-44.6,15.1-55.9
			C619.5,289.1,631.5,287.8,642.5,291.4z"/>
		<g class="st8">
			<path class="st9" d="M619.5,397.4H640c1.4,0,2.5,1.1,2.5,2.5l0,0v4.6l0,0H617l0,0v-4.6C617,398.5,618.2,397.4,619.5,397.4z"/>
		</g>
		<path class="st6" d="M608.5,403.1H651c1.6,0,2.9,1.3,2.9,2.9l0,0v4.7l0,0h-48.3l0,0V406C605.6,404.4,606.9,403.1,608.5,403.1z"/>
		<g class="st10">
			<path class="st9" d="M608.5,403.1H651c1.6,0,2.9,1.3,2.9,2.9l0,0v4.7l0,0h-48.3l0,0V406C605.6,404.4,606.9,403.1,608.5,403.1z"/>
		</g>
	</g>
</g>
<g id="Speech_Bubble_2">
	<g>
		<g>
			<g>
				<g>
					<path class="st3" d="M609,135.9c8.2,11.1,5.8,26.6-5.3,34.8c-8.5,6.3-19.8,6.3-28.2,0.9l-7.2,2l0.9-7.9
						c-0.1-0.1-0.2-0.2-0.3-0.3c-8.2-11.1-5.8-26.6,5.3-34.8C585.3,122.5,600.9,124.8,609,135.9z"/>
					<path class="st13" d="M609,135.9c8.2,11.1,5.8,26.6-5.3,34.8c-8.5,6.3-19.8,6.3-28.2,0.9l-7.2,2l0.9-7.9
						c-0.1-0.1-0.2-0.2-0.3-0.3c-8.2-11.1-5.8-26.6,5.3-34.8C585.3,122.5,600.9,124.8,609,135.9z"/>
					<path class="st3" d="M610.6,133.5c-0.1,0-0.2,0-0.2-0.1c-4.4-6.4-12.1-10.5-19.9-10.5c-0.2,0-0.4,0-0.6,0
						c-0.1,0-0.3-0.1-0.3-0.2c0-0.1,0.1-0.3,0.2-0.3c8.1-0.2,16.4,4,20.9,10.7c0.1,0.1,0,0.3-0.1,0.3
						C610.7,133.4,610.7,133.5,610.6,133.5z M582.7,123.7c1.1-0.4,2.3-0.6,3.5-0.6c0.1,0,0.3-0.1,0.3-0.2c0-0.1-0.1-0.3-0.2-0.3
						c-1.3-0.1-2.6,0.2-3.7,0.6c-0.1,0-0.2,0.2-0.1,0.3C582.4,123.6,582.5,123.7,582.7,123.7C582.6,123.7,582.6,123.7,582.7,123.7z"
						/>
					<path class="st13" d="M610.6,133.5c-0.1,0-0.2,0-0.2-0.1c-4.4-6.4-12.1-10.5-19.9-10.5c-0.2,0-0.4,0-0.6,0
						c-0.1,0-0.3-0.1-0.3-0.2c0-0.1,0.1-0.3,0.2-0.3c8.1-0.2,16.4,4,20.9,10.7c0.1,0.1,0,0.3-0.1,0.3
						C610.7,133.4,610.7,133.5,610.6,133.5z M582.7,123.7c1.1-0.4,2.3-0.6,3.5-0.6c0.1,0,0.3-0.1,0.3-0.2c0-0.1-0.1-0.3-0.2-0.3
						c-1.3-0.1-2.6,0.2-3.7,0.6c-0.1,0-0.2,0.2-0.1,0.3C582.4,123.6,582.5,123.7,582.7,123.7C582.6,123.7,582.6,123.7,582.7,123.7z"
						/>
				</g>
			</g>
		</g>
		<path class="st3" d="M583.4,149.9c0,1.8-1.5,3.3-3.3,3.3c-1.8,0-3.3-1.5-3.3-3.3s1.5-3.3,3.3-3.3
			C581.9,146.5,583.4,148,583.4,149.9z"/>
		<circle class="st3" cx="590.2" cy="149.9" r="3.3"/>
		<circle class="st3" cx="600.5" cy="149.9" r="3.3"/>
	</g>
</g>
<g id="Speech_Bubble_1">
	<g>
		<g>
			<g>
				<g>
					<path class="st3" d="M232.4,115c-7.7-9.8-22.1-11.7-32.3-4.2c-7.8,5.8-10.7,15.4-8.1,24l-3.7,5.7l7.2,1.2
						c0.1,0.1,0.1,0.2,0.2,0.3c7.7,9.8,22.1,11.7,32.3,4.2C238.2,138.7,240.1,124.8,232.4,115z"/>
					<path class="st13" d="M232.4,115c-7.7-9.8-22.1-11.7-32.3-4.2c-7.8,5.8-10.7,15.4-8.1,24l-3.7,5.7l7.2,1.2
						c0.1,0.1,0.1,0.2,0.2,0.3c7.7,9.8,22.1,11.7,32.3,4.2C238.2,138.7,240.1,124.8,232.4,115z"/>
					<path class="st3" d="M239.2,135C239.2,135,239.2,135,239.2,135c-0.2-0.1-0.3-0.2-0.2-0.3c2.3-6.8,0.7-14.7-4-20.2
						c-0.1-0.1-0.1-0.3,0-0.4c0.1-0.1,0.3-0.1,0.4,0c4.8,5.6,6.4,13.7,4.1,20.7C239.4,134.9,239.4,135,239.2,135z M236.8,140.9
						c0.7-0.9,1.2-2,1.5-3.1c0-0.1,0-0.3-0.2-0.3c-0.1,0-0.3,0-0.3,0.2c-0.3,1-0.8,2-1.4,2.9c-0.1,0.1-0.1,0.3,0,0.4
						c0,0,0.1,0.1,0.2,0.1C236.7,141,236.8,141,236.8,140.9z"/>
					<path class="st13" d="M239.2,135C239.2,135,239.2,135,239.2,135c-0.2-0.1-0.3-0.2-0.2-0.3c2.3-6.8,0.7-14.7-4-20.2
						c-0.1-0.1-0.1-0.3,0-0.4c0.1-0.1,0.3-0.1,0.4,0c4.8,5.6,6.4,13.7,4.1,20.7C239.4,134.9,239.4,135,239.2,135z M236.8,140.9
						c0.7-0.9,1.2-2,1.5-3.1c0-0.1,0-0.3-0.2-0.3c-0.1,0-0.3,0-0.3,0.2c-0.3,1-0.8,2-1.4,2.9c-0.1,0.1-0.1,0.3,0,0.4
						c0,0,0.1,0.1,0.2,0.1C236.7,141,236.8,141,236.8,140.9z"/>
				</g>
			</g>
		</g>
		<path class="st3" d="M219.6,128c0,1.6,1.4,3,3.1,3c1.7,0,3.1-1.3,3.1-3c0-1.6-1.4-3-3.1-3C221,125,219.6,126.3,219.6,128z"/>
		<path class="st3" d="M210.2,128c0,1.6,1.4,3,3.1,3c1.7,0,3.1-1.3,3.1-3c0-1.6-1.4-3-3.1-3C211.5,125,210.2,126.3,210.2,128z"/>
		<path class="st3" d="M200.7,128c0,1.6,1.4,3,3.1,3c1.7,0,3.1-1.3,3.1-3c0-1.6-1.4-3-3.1-3C202.1,125,200.7,126.3,200.7,128z"/>
	</g>
</g>
<g id="Light_Bulb">
	<g>
		<g>
			<g>
				<g>
					<g>
						<path class="st14" d="M403.9,20.9c-17.3-0.2-31.5,13.7-31.7,31c-0.1,9.4,4,18.3,11.2,24.4c1.3,1.1,3.3,2.4,3.3,5.2
							c0,0.1,0.1,6.9,0.1,6.9h33c0,0,0.1-7,0.1-7.1c0-2.4,1.9-3.5,3.2-4.5c7.3-5.8,11.6-14.7,11.7-24
							C435.1,35.3,421.2,21.1,403.9,20.9z"/>
						<path class="st15" d="M403.9,20.9c-17.3-0.2-31.5,13.7-31.7,31c-0.1,9.4,4,18.3,11.2,24.4c1.3,1.1,3.3,2.4,3.3,5.2
							c0,0.1,0.1,6.9,0.1,6.9h33c0,0,0.1-7,0.1-7.1c0-2.4,1.9-3.5,3.2-4.5c7.3-5.8,11.6-14.7,11.7-24
							C435.1,35.3,421.2,21.1,403.9,20.9z"/>
						<path class="st11" d="M419.5,34.4c0,6.1-7.1,11.1-16,11.1c-8.9,0-16-5-16-11.1c0-6.1,7.1-11.1,16-11.1
							C412.3,23.4,419.5,28.3,419.5,34.4z"/>
					</g>
					<path class="st9" d="M379.4,64.3c-2.8-4.8-3.9-10.4-3.1-15.8c0.8-5.4,3.5-10.5,7.5-14.3l0.3,0.4c-3.9,3.7-6.5,8.6-7.3,14
						c-0.8,5.3,0.3,10.8,3,15.5L379.4,64.3z"/>
					<path class="st6" d="M412.6,81.6c-1.6-4.2-2.9-8.6-4-13c-1.6,1.4-3.4,2.1-5.1,2.1c-1.4-0.1-2.8-0.6-4.2-1.8
						c-0.2,4.3-0.9,8.6-2.1,12.7l-1-0.3c1.3-4.3,2-8.7,2.1-13.2c-0.2-0.2-0.5-0.4-0.7-0.7c-3.5-3.7-5.1-8.2-4.4-12.1
						c0.3-1.5,1.2-2.9,2.6-2.9c1.2,0,2.2,1.3,2.6,3.4c0.8,3.9,1.1,7.9,1,11.9c1.5,1.3,2.8,1.9,4.2,2c2,0.1,3.7-1.2,4.8-2.2
						c-0.8-3.4-1.4-6.8-1.8-10.2c-0.2-1.2-0.3-2.5,0-3.7c0.3-1.5,1.3-2.5,2.4-2.8c1.9-0.4,3.5,1.6,4,3.9c1.1,4.5-0.3,9.6-3.4,13
						c0,0-0.1,0.1-0.1,0.1c1.1,4.6,2.4,9.1,4.1,13.4L412.6,81.6z M395.8,53.3c-0.7,0-1.3,1.1-1.5,2.1c-0.7,3.6,0.8,7.8,4.1,11.2
						c0,0,0,0,0,0c0-3.6-0.3-7.2-1-10.7C397.3,55.4,396.9,53.4,395.8,53.3C395.8,53.3,395.8,53.3,395.8,53.3z M409.4,51.7
						c-0.1,0-0.2,0-0.3,0c-0.8,0.2-1.4,1.1-1.6,2c-0.2,1-0.1,2.1,0,3.3c0.4,3.2,1,6.4,1.6,9.5c2.6-3.1,3.7-7.8,2.8-11.7
						C411.6,53.3,410.6,51.7,409.4,51.7z"/>
				</g>
			</g>
			<path class="st6" d="M422,90.3h-37.1c-0.9,0-1.6-0.7-1.6-1.6v-0.8c0-0.9,0.7-1.6,1.6-1.6H422c0.9,0,1.6,0.7,1.6,1.6v0.8
				C423.6,89.5,422.8,90.3,422,90.3z"/>
			<path class="st16" d="M422,90.3h-37.1c-0.9,0-1.6-0.7-1.6-1.6v-0.8c0-0.9,0.7-1.6,1.6-1.6H422c0.9,0,1.6,0.7,1.6,1.6v0.8
				C423.6,89.5,422.8,90.3,422,90.3z"/>
			<path class="st6" d="M421.3,93.8h-35.8c-0.9,0-1.6-0.7-1.6-1.6v-0.6c0-0.9,0.7-1.6,1.6-1.6h35.8c0.9,0,1.6,0.7,1.6,1.6v0.6
				C422.9,93,422.2,93.8,421.3,93.8z"/>
			<path class="st16" d="M421.3,93.8h-35.8c-0.9,0-1.6-0.7-1.6-1.6v-0.6c0-0.9,0.7-1.6,1.6-1.6h35.8c0.9,0,1.6,0.7,1.6,1.6v0.6
				C422.9,93,422.2,93.8,421.3,93.8z"/>
			<g>
				<path class="st6" d="M391,99.3c2.5,4.5,7.7,9.3,12.8,9c5.1-0.3,10-4.7,11.9-9.5L391,99.3z"/>
			</g>
			<path class="st6" d="M418.9,100.7h-31.1c-0.9,0-1.6-0.7-1.6-1.6v-0.6c0-0.9,0.7-1.6,1.6-1.6h31.1c0.9,0,1.6,0.7,1.6,1.6v0.6
				C420.5,100,419.8,100.7,418.9,100.7z"/>
			<path class="st16" d="M418.9,100.7h-31.1c-0.9,0-1.6-0.7-1.6-1.6v-0.6c0-0.9,0.7-1.6,1.6-1.6h31.1c0.9,0,1.6,0.7,1.6,1.6v0.6
				C420.5,100,419.8,100.7,418.9,100.7z"/>
			<path class="st6" d="M420.8,97.2H386c-0.9,0-1.6-0.7-1.6-1.6v-0.6c0-0.9,0.7-1.6,1.6-1.6h34.8c0.9,0,1.6,0.7,1.6,1.6v0.6
				C422.4,96.5,421.7,97.2,420.8,97.2z"/>
			<path class="st16" d="M420.8,97.2H386c-0.9,0-1.6-0.7-1.6-1.6v-0.6c0-0.9,0.7-1.6,1.6-1.6h34.8c0.9,0,1.6,0.7,1.6,1.6v0.6
				C422.4,96.5,421.7,97.2,420.8,97.2z"/>
		</g>
		<path class="st6" d="M386.1,9.5c2.4,2.4,4.8,4.8,7.1,7.1c0.3,0.3,0.9-0.2,0.5-0.5c-2.4-2.4-4.8-4.8-7.1-7.1
			C386.3,8.7,385.8,9.2,386.1,9.5L386.1,9.5z"/>
		<path class="st6" d="M404.8,13.9c0-4.5,0-9,0-13.5c0-0.5-0.8-0.5-0.8,0c0,4.5,0,9,0,13.5C404,14.4,404.8,14.4,404.8,13.9
			L404.8,13.9z"/>
		<path class="st6" d="M414.7,17.3c2.6-2.6,5.2-5.2,7.7-7.7c0.3-0.3-0.2-0.9-0.5-0.5c-2.6,2.6-5.2,5.2-7.7,7.7
			C413.8,17.1,414.3,17.6,414.7,17.3L414.7,17.3z"/>
	</g>
</g>
<g id="Books">
	<g>
		<rect x="135.4" y="364.6" class="st3" width="435" height="46.6"/>
		<rect x="135.4" y="369.5" class="st9" width="149.5" height="36.8"/>
		<g>
			<path class="st6" d="M135.4,378.5c45.5-0.5,96.5-0.5,141.9,0C231.8,379,180.9,379,135.4,378.5L135.4,378.5z"/>
			<path class="st6" d="M135.4,382.9c45.5-0.5,96.5-0.5,141.9,0C231.8,383.4,180.9,383.4,135.4,382.9L135.4,382.9z"/>
			<path class="st6" d="M135.4,387.3c45.5-0.5,96.5-0.5,141.9,0C231.8,387.8,180.9,387.8,135.4,387.3L135.4,387.3z"/>
			<path class="st6" d="M135.4,391.6c45.5-0.5,96.5-0.5,141.9,0C231.8,392.1,180.9,392.1,135.4,391.6L135.4,391.6z"/>
			<path class="st6" d="M135.4,396c45.5-0.5,96.5-0.5,141.9,0C231.8,396.5,180.9,396.5,135.4,396L135.4,396z"/>
			<path class="st6" d="M135.4,400.4c45.5-0.5,96.5-0.5,141.9,0C231.8,400.9,180.9,400.9,135.4,400.4L135.4,400.4z"/>
			<path class="st6" d="M135.4,374.2c45.5-0.5,96.5-0.5,141.9,0C231.8,374.7,180.9,374.7,135.4,374.2L135.4,374.2z"/>
		</g>
		<rect x="323" y="364.6" class="st16" width="13.3" height="46.6"/>
		<rect x="526.5" y="364.6" class="st16" width="13.3" height="46.6"/>
		<rect x="135.4" y="364.6" class="st17" width="157.9" height="46.6"/>
	</g>
	<g>
		<rect x="201.1" y="266.3" class="st3" width="252.8" height="33.2"/>
		<rect x="201.1" y="269.8" class="st9" width="106.5" height="26.2"/>
		<g>
			<path class="st6" d="M201.1,276.2c32.4-0.5,68.7-0.5,101.1,0C269.8,276.7,233.4,276.7,201.1,276.2L201.1,276.2z"/>
			<path class="st6" d="M201.1,279.4c32.4-0.5,68.7-0.5,101.1,0C269.8,279.8,233.4,279.8,201.1,279.4L201.1,279.4z"/>
			<path class="st6" d="M201.1,282.5c32.4-0.5,68.7-0.5,101.1,0C269.8,283,233.4,283,201.1,282.5L201.1,282.5z"/>
			<path class="st6" d="M201.1,285.6c32.4-0.5,68.7-0.5,101.1,0C269.8,286.1,233.4,286.1,201.1,285.6L201.1,285.6z"/>
			<path class="st6" d="M201.1,288.7c32.4-0.5,68.7-0.5,101.1,0C269.8,289.2,233.4,289.2,201.1,288.7L201.1,288.7z"/>
			<path class="st6" d="M201.1,291.8c32.4-0.5,68.7-0.5,101.1,0C269.8,292.3,233.4,292.3,201.1,291.8L201.1,291.8z"/>
			<path class="st6" d="M201.1,273.1c32.4-0.5,68.7-0.5,101.1,0C269.8,273.6,233.4,273.6,201.1,273.1L201.1,273.1z"/>
		</g>
		<rect x="434" y="266.3" class="st8" width="9.5" height="33.2"/>
		<rect x="333" y="266.3" class="st8" width="9.5" height="33.2"/>
		<rect x="201.1" y="266.3" class="st17" width="112.5" height="33.2"/>
		<rect x="350.9" y="278" class="st8" width="73.5" height="9.7"/>
	</g>
	<g>
		<rect x="108.8" y="345.1" class="st6" width="354.8" height="19.5"/>
		<rect x="108.8" y="347.6" class="st9" width="149.1" height="14.5"/>
		<g>
			<path class="st6" d="M109.9,350.5c45.5-0.5,96.5-0.5,141.9,0C206.3,351,155.3,351,109.9,350.5L109.9,350.5z"/>
			<path class="st6" d="M109.9,354.8c45.5-0.5,96.5-0.5,141.9,0C206.3,355.3,155.3,355.3,109.9,354.8L109.9,354.8z"/>
			<path class="st6" d="M109.9,359.2c45.5-0.5,96.5-0.5,141.9,0C206.3,359.7,155.3,359.7,109.9,359.2L109.9,359.2z"/>
		</g>
		<rect x="296.5" y="345.1" class="st16" width="3.7" height="19.5"/>
		<rect x="303.5" y="345.1" class="st16" width="3.7" height="19.5"/>
		<rect x="436" y="345.1" class="st16" width="3.7" height="19.5"/>
		<rect x="443" y="345.1" class="st16" width="3.7" height="19.5"/>
		<rect x="108.8" y="345.1" class="st17" width="152.7" height="19.5"/>
	</g>
	<g>
		<rect x="177.7" y="299.3" class="st6" width="354.8" height="19.5"/>
		<rect x="177.7" y="301.8" class="st9" width="149.1" height="14.5"/>
		<g>
			<path class="st6" d="M178.7,304.7c45.5-0.5,96.5-0.5,141.9,0C275.2,305.2,224.2,305.2,178.7,304.7L178.7,304.7z"/>
			<path class="st6" d="M178.7,309.1c45.5-0.5,96.5-0.5,141.9,0C275.2,309.6,224.2,309.6,178.7,309.1L178.7,309.1z"/>
			<path class="st6" d="M178.7,313.4c45.5-0.5,96.5-0.5,141.9,0C275.2,313.9,224.2,313.9,178.7,313.4L178.7,313.4z"/>
		</g>
		<rect x="365.4" y="299.3" class="st16" width="3.7" height="19.5"/>
		<rect x="372.4" y="299.3" class="st16" width="3.7" height="19.5"/>
		<rect x="504.9" y="299.3" class="st16" width="3.7" height="19.5"/>
		<rect x="511.9" y="299.3" class="st16" width="3.7" height="19.5"/>
		<rect x="177.7" y="299.3" class="st17" width="152.7" height="19.5"/>
	</g>
	<g>
		<g>
			
				<rect x="123.5" y="318.6" transform="matrix(-1 -1.224647e-16 1.224647e-16 -1 601.7965 663.906)" class="st3" width="354.8" height="26.6"/>
			
				<rect x="123.5" y="318.6" transform="matrix(-1 -1.224647e-16 1.224647e-16 -1 601.7965 663.906)" class="st15" width="354.8" height="26.6"/>
			
				<rect x="329.2" y="321.7" transform="matrix(-1 -1.224647e-16 1.224647e-16 -1 807.5147 664.4483)" class="st9" width="149.1" height="21"/>
			<g>
				<path class="st6" d="M477.3,331.1c-45.5,0.5-96.5,0.5-141.9,0C380.8,330.6,431.8,330.7,477.3,331.1L477.3,331.1z"/>
				<path class="st6" d="M477.3,335.5c-45.5,0.5-96.5,0.5-141.9,0C380.8,335,431.8,335,477.3,335.5L477.3,335.5z"/>
				<path class="st6" d="M477.3,339.9c-45.5,0.5-96.5,0.5-141.9,0C380.8,339.4,431.8,339.4,477.3,339.9L477.3,339.9z"/>
			</g>
			<g>
				<path class="st6" d="M477.3,326.6c-45.5,0.5-96.5,0.5-141.9,0C380.8,326.1,431.8,326.1,477.3,326.6L477.3,326.6z"/>
			</g>
			
				<rect x="325.6" y="318.6" transform="matrix(-1 -1.224647e-16 1.224647e-16 -1 803.8976 663.8813)" class="st17" width="152.7" height="26.6"/>
		</g>
		<rect x="155.2" y="326.6" class="st15" width="140" height="8.9"/>
	</g>
</g>
<g id="Character_3">
	<g>
		<g>
			<g>
				<path class="st18" d="M535.8,319.5c0,0-104.1-21.2-108.4,0.5c-6.1,31,69.1,49.4,108.8,47C575.9,364.6,535.8,319.5,535.8,319.5z"
					/>
				<path class="st19" d="M535.8,319.5c0,0-104.1-21.2-108.4,0.5c-6.1,31,69.1,49.4,108.8,47C575.9,364.6,535.8,319.5,535.8,319.5z"
					/>
				<path class="st19" d="M461.5,325.7l49.5,29.4l-6.2,9.4c0,0,3.6,5,9.6-10.8l-30.6-19c0,0,9.4-1.2,9.1-2.7
					c-0.5-2.4-21.3-6.4-30.7-8.2c-0.5-0.2-1,0.1-1.2,0.6C460.8,325,461,325.5,461.5,325.7z"/>
				<path class="st19" d="M512.7,351.6l-8,13.9c10.4,1.5,21,2,31.6,1.6c3.5-0.1,6.9-0.8,10.1-2.1l2.8-5.5l-6.7-12.6L512.7,351.6z"/>
				<g>
					<g>
						<g>
							<g>
								<g>
									<polygon class="st20" points="496.4,346.6 518.4,359.7 514.9,370.3 489.2,359.6 									"/>
								</g>
							</g>
						</g>
					</g>
					<g>
						<g>
							<g>
								<g>
									<g>
										<g>
											<g>
												<g>
													<g>
														<g>
															<g>
																<g>
																	<path class="st6" d="M530.4,362.8l-1.9,7.6c0,0-1.6,0.4-2,2c-0.3,0.9,0.5,3.3,0.5,3.3l-5.1,20.9c0,0-1.4-0.3-2-0.7
																		c-0.7-0.5-1.3-0.9-1.7-1.4c-1.6-1.7-1.8-4.3-1.9-6.2c-0.2-3.2-2.3-12.4-2.3-12.4s-0.8-2.4-3.4-4.5
																		c-1.5-1.1-2.2-2.6-2.1-3.6c0.2-1.9,1.6-2.7,3.3-2.5l2.1,0.2c1.4-1.1,1.8-3,0.9-4.8c0,0-1.4-4.5,0.6-3.8
																		c1.1,0.4,5.9,2.4,9.8,3.8c0.9,0.3,1.8,0.7,2.5,0.9l0,0C529.3,362.4,530.4,362.8,530.4,362.8z"/>
																</g>
															</g>
														</g>
													</g>
												</g>
											</g>
											<g>
												<g>
													<g>
														<g>
															<path class="st3" d="M514.9,380.8c-0.1-0.1,0-0.3,0.1-0.4c0.4-0.4,1-0.7,1.6-0.9c0.3-0.1,0.5,0.4,0.2,0.5
																c-0.5,0.1-1,0.4-1.4,0.8C515.2,381,515,381,514.9,380.8C514.9,380.8,514.9,380.8,514.9,380.8z"/>
														</g>
													</g>
												</g>
											</g>
											<g>
												<g>
													<g>
														<g>
															<path class="st3" d="M514.4,379c-0.1-0.1,0-0.3,0.1-0.4c0.4-0.4,1-0.7,1.6-0.9c0.3-0.1,0.5,0.4,0.2,0.5
																c-0.5,0.1-1,0.4-1.4,0.8C514.7,379.2,514.5,379.2,514.4,379C514.4,379,514.4,379,514.4,379z"/>
														</g>
													</g>
												</g>
											</g>
											<g>
												<g>
													<g>
														<g>
															<path class="st3" d="M514,377.1c-0.1-0.1,0-0.3,0.1-0.4c0.4-0.4,1-0.7,1.6-0.9c0.3-0.1,0.5,0.4,0.2,0.5
																c-0.5,0.1-1,0.4-1.4,0.8C514.3,377.3,514.1,377.3,514,377.1C514,377.2,514,377.2,514,377.1z"/>
														</g>
													</g>
												</g>
											</g>
										</g>
									</g>
								</g>
							</g>
						</g>
					</g>
					<g>
						<path class="st11" d="M527.6,361.8L527.6,361.8c1.7,0.6,2.8,1.1,2.8,1.1l-1.9,7.6c0,0-1.6,0.4-2,2c-0.3,0.9,0.5,3.3,0.5,3.3
							l-5.1,20.9c0,0-1.4-0.3-2-0.7c-0.3-0.2-0.6-0.4-0.9-0.7l8.2-33.7C527.3,361.7,527.5,361.7,527.6,361.8z"/>
					</g>
					<path class="st3" d="M511.1,378.7c-0.5,0-1-0.1-1.4-0.4c-0.3-0.2-0.6-0.6-0.6-1c0.1-0.4,0.5-0.7,0.8-0.8
						c0.7-0.3,1.4-0.3,2.3-0.2c0.8,0.1,1.5,0.4,2.2,0.6l0.2,0.1l-0.2,0.1c-0.4,0.3-1.8,1.4-2.6,1.5
						C511.5,378.7,511.3,378.7,511.1,378.7z M511.3,376.5c-0.5,0-1,0.1-1.4,0.2c-0.2,0.1-0.6,0.3-0.6,0.6c-0.1,0.3,0.2,0.6,0.5,0.8
						c0.5,0.3,1.2,0.5,1.9,0.3c0.6-0.1,1.8-1,2.3-1.4c-0.6-0.2-1.3-0.4-1.9-0.5C511.8,376.5,511.6,376.5,511.3,376.5z"/>
					<path class="st3" d="M514.4,377.2l-0.2-0.1l0.1-0.1l-0.1,0.1c-0.6-0.4-1.2-0.9-1.7-1.5c-0.6-0.6-1-1.3-1.1-2
						c-0.1-0.3-0.1-0.8,0.2-1.1c0.3-0.3,0.8-0.3,1.2-0.1c0.6,0.3,1.2,0.8,1.5,1.6c0.3,0.7,0.2,2.5,0.2,3L514.4,377.2z M512.2,372.5
						c-0.2,0-0.3,0-0.4,0.2c-0.2,0.2-0.2,0.6-0.1,0.9c0.1,0.6,0.5,1.3,1.1,1.9c0.5,0.5,1,0.9,1.5,1.3c0-1,0-2.2-0.2-2.7
						c-0.3-0.7-0.8-1.2-1.3-1.4C512.5,372.5,512.3,372.5,512.2,372.5z"/>
				</g>
			</g>
		</g>
		<path class="st20" d="M491.1,255c0,0-2.8,33.7-3.7,35.6c-3.2,6.2-25.5,17.3-25.5,17.3l-11.6-2.1l-8.1,7.1l5.6,4.1l6.3-2.6
			c3.5,0.5,7.1,0.7,10.6,0.6c6-0.2,35.6-7.6,40.2-15.7c4.6-8.1,4.5-46,4.5-46L491.1,255z"/>
		<g>
			<path class="st3" d="M510.3,267.6c0,0,8-29.8-3.3-37.7c-11.3-7.9-18.9,33-18.9,33L510.3,267.6z"/>
			<path class="st21" d="M510.3,267.6c0,0,8-29.8-3.3-37.7c-11.3-7.9-18.9,33-18.9,33L510.3,267.6z"/>
			<path class="st3" d="M504.9,321.9l-1.1-39.1l-0.7-53.6l23-5.7l16.1-0.2l27.2,8.5l0.9,13.1c0,0-0.8,60.4-0.6,62.3
				c0.2,2.2,7.2,16,7.2,16C548.1,330.6,504.5,323.9,504.9,321.9z"/>
			<polygon class="st17" points="503.7,266.2 503.3,242.9 499.2,265.3 			"/>
			<path class="st17" d="M552.7,268.5c-0.7-0.1-3.6-1-3.6-1l6.6-22.7l-10.3,25l6.7,2.4L552.7,268.5z"/>
		</g>
		<g>
			<path class="st20" d="M555.3,249.9c0,0-4.5,37.5-7.6,41.1c-5.3,6.1-32,22.5-32,22.5l-13.7-4.3c-1-0.3-2-0.1-2.8,0.5l-9,7.3
				l0.9,0.7c0.4,0.3,0.9,0.4,1.4,0.1l1.4-0.8l-1.6,1.6l0.5,0.4c0.5,0.4,1.2,0.5,1.9,0.4l4.1-1.2l-3.7,2.7c0.9,0.7,2.1,0.9,3.1,0.6
				l6-1.9c4.2,0.8,8.4,1.3,12.6,1.4c7.1,0.2,40.5-12.5,46.5-21.3c6-8.8,11.4-44.7,11.4-44.7L555.3,249.9z"/>
			<g>
				<path class="st3" d="M573.9,274.2c0,0,7.4-34.1-3.9-41.9c-11.3-7.9-20.9,35.2-20.9,35.2L573.9,274.2z"/>
				<path class="st21" d="M573.9,274.2c0,0,7.4-34.1-3.9-41.9c-11.3-7.9-20.9,35.2-20.9,35.2L573.9,274.2z"/>
			</g>
		</g>
		<g>
			<g>
				<path class="st6" d="M484.8,319.9l20.8-0.6l22.1-0.7c0,0,0,0,0,0c0,1.6-1.8,3-4,3.1l-22.1,0.7l-12.6,0.4c0,0,0,0-0.1,0
					c0,0,0,0,0,0l-35.1,1c-2.2,0.1-4.1-1.2-4.1-2.8L484.8,319.9z"/>
			</g>
			<path class="st6" d="M453.2,323.6l39.2-1.2c0.7,0,1.2-0.5,1.2-1c0-0.1,0-0.2-0.1-0.3l-18.6-39.5c-0.5-1.1-1.8-1.9-3.3-1.8
				l-39.2,1.2c-0.7,0-1.2,0.5-1.2,1c0,0.1,0,0.2,0.1,0.3l18.6,39.5C450.4,322.9,451.7,323.6,453.2,323.6z"/>
			<path class="st22" d="M432.4,281l39.2-1.2c1.5,0,2.8,0.7,3.3,1.8l17.9,38l12.8-0.4l22.1-0.7c0,0,0,0,0,0c0,1.6-1.8,3-4,3.1
				l-22.1,0.7l-12.6,0.4c0,0,0,0-0.1,0c0,0,0,0,0,0l-35.1,1c-0.7,0-1.4-0.1-1.9-0.3c-0.9-0.3-1.7-0.9-2-1.6l-18.6-39.5
				c-0.1-0.1-0.1-0.2-0.1-0.3C431.2,281.4,431.7,281,432.4,281z"/>
			<path class="st9" d="M456.6,301.6c0.9,1.9,2.7,3.2,3.9,2.9c1.3-0.3,1.6-2.1,0.7-4c-0.9-1.9-2.7-3.1-3.9-2.8
				C456,297.9,455.6,299.6,456.6,301.6z"/>
			<g class="st8">
				<line class="st23" x1="493.5" y1="319.6" x2="492.8" y2="319.6"/>
				<path d="M474.9,281.6l17.9,38l-1.8,0.1l-19.4-39.9C473.1,279.8,474.4,280.5,474.9,281.6z"/>
			</g>
		</g>
		<g>
			<g>
				<g>
					<g>
						<g>
							<g>
								<path class="st20" d="M542.8,226.1c0,0-4.2-8.2-1.5-21.9c-1.7-0.8,0.5-4.2,0.5-5.5l-17.2,12.8c0.8,4.2,0,12.6-0.6,16.1
									l6.6,6L542.8,226.1z"/>
								<path class="st17" d="M525.1,214l10-0.8c-1.7,3-2.9,5.6-10.2,5.9C524.9,219.1,524.8,215.4,525.1,214z"/>
							</g>
							<g>
								<path class="st6" d="M518.2,173.4c-3.1,3.6-4.4,14.1,2.6,13.7C527.8,186.8,523.5,167.2,518.2,173.4z"/>
								<path class="st20" d="M547,192.8c-3.9,11-5.8,17.3-13.1,21.3c-30.5,12.4-27.1-39.8-3.6-42.8
									C542.3,170.2,550.8,181.8,547,192.8z"/>
								<path class="st6" d="M556,178.9c-1.6-10.7-19-10.2-24.2-8.3c-0.8,0.3,7.1,7.5,6.6,7.1l3.9,2.7c5.5,2.8-4.4,11.6,0.3,21.2
									C553,200.3,556.8,186.7,556,178.9z"/>
								<path class="st20" d="M548.7,203.4c-3,5.6-13.9,7.1-11.1-1.6C539.9,193.3,553.1,193.4,548.7,203.4z"/>
								<path class="st6" d="M530.3,191.5c-0.7,2.7-3.5,1.9-2.7-0.8C528.3,188,531.1,188.9,530.3,191.5z"/>
								<path class="st6" d="M518.7,188.5c-0.7,2.7-3.5,1.9-2.7-0.8C516.7,185,519.5,185.8,518.7,188.5z"/>
								<path class="st24" d="M522.6,188.9c0,0-5.2,4.7-7.1,6.6c1.2,1.9,4.1,2,4.1,2L522.6,188.9z"/>
								<path class="st6" d="M534.4,186.9c-0.2,0-0.4-0.1-0.5-0.2c-1.5-2-3.5-1.9-3.5-1.9c-2.2-1.5,2.4-1.8,4.4,1.3
									C535,186.4,534.8,186.9,534.4,186.9z"/>
							</g>
							<path class="st17" d="M541,201.7C541,201.7,541,201.7,541,201.7c-0.2-0.1-0.3-0.2-0.2-0.3c0.5-1.7,2.5-3.3,4.1-3.4
								c0.8-0.1,1.8,0.2,2.4,1.5c0.1,0.1,0,0.3-0.1,0.3c-0.1,0.1-0.3,0-0.3-0.1c-0.4-0.9-1.1-1.3-1.9-1.2c-1.4,0.1-3.2,1.6-3.7,3.1
								C541.2,201.7,541.1,201.7,541,201.7z"/>
						</g>
						<path class="st6" d="M515.2,182.3c-0.4-0.2-0.4-0.8,0-1c2.7-1.5,4.9-0.3,5.1-0.2c0.6,0.3,0.1,1.3-0.5,1
							C519.4,181.6,517.3,181.6,515.2,182.3z"/>
					</g>
				</g>
			</g>
			<path class="st6" d="M551.5,196c0,0-7.7-11-17.1-16.2c-10.4-5.7-18.1-4-18.1-4s-1.8-1.8-0.6-2.7c1.1-1,2.2-0.1,2.2-0.1
				s11.2-11.9,24.6-8.1c13.4,3.8,17.8,12.1,17.3,12.7c-2.7,3-4.3-1.7-4.3-1.7s3.3,4.3-0.5,13.2l-1.1,3.5
				C553.8,192.5,554.7,196.6,551.5,196z"/>
			<path class="st13" d="M551.5,196c0,0-7.7-11-17.1-16.2c-10.4-5.7-18.1-4-18.1-4s-1.8-1.8-0.6-2.7c1.1-1,2.2-0.1,2.2-0.1
				s11.2-11.9,24.6-8.1c13.4,3.8,17.8,12.1,17.3,12.7c-2.7,3-4.3-1.7-4.3-1.7s3.3,4.3-0.5,13.2l-1.1,3.5
				C553.8,192.5,554.7,196.6,551.5,196z"/>
			<g>
				<path class="st6" d="M534.1,179.4c-1.4-0.5-2.5-1.9-2.5-3.4c0-1,0.3-1.9,0.6-2.9c0.3-1,0.4-2-0.1-2.9c-0.4-0.8-1.2-1.3-2-1.3
					c-0.8,0-1.7,0.4-2.1,1.2c0.3-0.6,0.1-1.4-0.3-1.9c-0.4-0.5-1.1-0.8-1.7-1.1c-1.1-0.5-2.3-1.1-3.5-0.7c-1.2,0.3-1.9,1.5-2.3,2.6
					c-0.5,1.5-0.7,3.1-0.1,4.6c0.7,2,2.5,3.4,4.5,4.1c2,0.7,4.1,0.8,6.2,1"/>
			</g>
			<path class="st17" d="M555.8,176.7c0,0-1.5-5.1-7.8-7.6L555.8,176.7z"/>
			<path class="st8" d="M553,192.3c-3.8-7.4-11.7-14.9-19.6-18.6l0.1-0.2c8,3.7,15.9,11.3,19.7,18.7L553,192.3z"/>
			<g>
				<path class="st6" d="M520.5,201.7c0.8,1.4,1.5,2.9,2.1,4.5c0.3-0.1,0.6-0.1,0.9-0.2c3.9-0.9,5.4-2.5,5.9-4.2
					c0.2-0.8,0.3-1.6,0.1-2.4c-0.1-0.5-0.2-0.9-0.4-1.3c-1.8,1.7-5.3,2.8-7.2,3.3C521,201.6,520.5,201.7,520.5,201.7z"/>
				<path class="st9" d="M521.8,201.4l0.7,1.3c3.6-0.8,6.1-1.9,7-3.3c-0.1-0.5-0.2-0.9-0.4-1.3C527.3,199.8,523.7,200.9,521.8,201.4
					z"/>
				<path class="st25" d="M523.5,206c3.9-0.9,5.4-2.5,5.9-4.2c-1.5,0.4-2.9,1-4.1,1.8C524.4,204.3,523.8,205.1,523.5,206z"/>
			</g>
		</g>
		<g>
			<g>
				<g>
					<g>
						<g>
							<g>
								<polygon class="st20" points="475.3,364.5 450.2,369.3 445.8,359 472.1,350 								"/>
							</g>
						</g>
					</g>
				</g>
				<g>
					<g>
						<g>
							<g>
								<g>
									<g>
										<g>
											<g>
												<g>
													<g>
														<g>
															<g>
																<path class="st6" d="M439.1,374.9l-3.6-6.9c0,0,0.9-1.3,0.2-2.8c-0.4-0.8-2.6-2.2-2.6-2.2l-10.1-19
																	c0,0,1.3-0.7,2-0.8c0.8-0.1,1.6-0.1,2.2,0c2.3,0.2,4.2,2,5.6,3.3c2.3,2.3,10,7.8,10,7.8s2.2,1.3,5.5,1.1
																	c1.9-0.1,3.4,0.5,3.9,1.3c1.1,1.6,0.6,3-0.8,4.1l-1.7,1.2c-0.3,1.8,0.6,3.5,2.5,4.1c0,0,4,2.5,2.1,3.2
																	c-1.1,0.4-6,2.1-9.9,3.6c-0.9,0.3-1.7,0.7-2.5,1l0,0C440.2,374.5,439.1,374.9,439.1,374.9z"/>
															</g>
														</g>
													</g>
												</g>
											</g>
										</g>
										<g>
											<g>
												<g>
													<g>
														<path class="st3" d="M438.8,351.1c0.1,0,0.2,0.2,0.2,0.3c0,0.6-0.2,1.2-0.6,1.7c-0.2,0.3-0.7,0-0.5-0.3
															c0.3-0.5,0.5-1,0.5-1.5C438.5,351.2,438.6,351.1,438.8,351.1C438.8,351.1,438.8,351.1,438.8,351.1z"/>
													</g>
												</g>
											</g>
										</g>
										<g>
											<g>
												<g>
													<g>
														<path class="st3" d="M440.4,352.2c0.1,0,0.2,0.2,0.2,0.3c0,0.6-0.2,1.2-0.6,1.7c-0.2,0.3-0.7,0-0.5-0.3
															c0.3-0.5,0.5-1,0.5-1.5C440,352.2,440.2,352.1,440.4,352.2C440.4,352.2,440.4,352.2,440.4,352.2z"/>
													</g>
												</g>
											</g>
										</g>
										<g>
											<g>
												<g>
													<g>
														<path class="st3" d="M441.9,353.3c0.1,0,0.2,0.2,0.2,0.3c0,0.6-0.2,1.2-0.6,1.7c-0.2,0.3-0.7,0-0.5-0.3
															c0.3-0.5,0.5-1,0.5-1.5C441.6,353.4,441.7,353.3,441.9,353.3C441.9,353.3,441.9,353.3,441.9,353.3z"/>
													</g>
												</g>
											</g>
										</g>
									</g>
								</g>
							</g>
						</g>
					</g>
				</g>
				<path class="st11" d="M435.7,365.1c-0.4-0.8-2.6-2.2-2.6-2.2l-10.1-19c0,0,1.3-0.7,2-0.8c0.4,0,0.7-0.1,1.1-0.1l16.2,30.6
					c-0.1,0.1-0.3,0.1-0.4,0.2l0,0c-1.7,0.6-2.8,1.1-2.8,1.1l-3.6-6.9C435.5,368,436.4,366.6,435.7,365.1z"/>
				<path class="st3" d="M441.6,353.8l0-0.2c0.1-0.5,0.5-2.3,0.9-2.9c0.5-0.6,1.1-1.1,1.8-1.2c0.4-0.1,0.9,0,1.1,0.4
					c0.2,0.3,0.1,0.7-0.1,1.1c-0.3,0.6-0.8,1.2-1.6,1.7c-0.6,0.4-1.3,0.7-2,1L441.6,353.8z M444.6,349.8c-0.1,0-0.1,0-0.2,0
					c-0.6,0.1-1.2,0.5-1.6,1.1c-0.3,0.4-0.6,1.6-0.8,2.6c0.6-0.3,1.2-0.5,1.8-0.9c0.7-0.4,1.2-1,1.5-1.6c0.1-0.2,0.3-0.6,0.1-0.9
					C445.2,349.9,444.9,349.8,444.6,349.8z"/>
				<path class="st3" d="M445.2,356.2c-0.4,0-0.9-0.1-1.3-0.3c-0.7-0.3-1.8-1.7-2.2-2.1l-0.1-0.2l0.2,0l0,0.1l0-0.1
					c0.7-0.1,1.5-0.1,2.3-0.1c0.9,0.1,1.6,0.3,2.2,0.7c0.4,0.3,0.6,0.6,0.6,1c0,0.4-0.4,0.7-0.8,0.9
					C445.8,356.2,445.5,356.2,445.2,356.2z M442.1,353.8c0.6,0.8,1.5,1.6,1.9,1.9c0.7,0.3,1.4,0.4,2,0.2c0.3-0.1,0.6-0.3,0.6-0.6
					c0-0.3-0.3-0.6-0.5-0.7c-0.5-0.4-1.2-0.6-2-0.7C443.4,353.7,442.7,353.7,442.1,353.8z"/>
			</g>
			<path class="st6" d="M569.9,350.2c5.2-8.8,16.8-32.7-8.3-36.5c-25.1-3.8-107.4,38.3-107.4,38.3l5.8,15.8l77.3-14.5
				c0,0-10.2,14.5,2.7,13.5C558.6,364.2,563,359.6,569.9,350.2z"/>
			<path class="st19" d="M535.4,353.7l21.1-7.3c0,0-17.6,11.5-24.1,13L535.4,353.7z"/>
		</g>
	</g>
</g>
<g id="Character_2_00000093857739440974999110000005822721067701599904_">
	<g>
		<g>
			<polygon class="st26" points="381.5,142.3 389,133.5 396.7,136.3 391.5,146.5 			"/>
			<g>
				<g>
					<g>
						<g>
							<g>
								<g>
									<g>
										<path class="st26" d="M387.9,132.8c0,0-0.7-4,1.3-6.6c2-2.7,2.8-5.3,4.4-7.2c1.6-1.9,1.6,1.4,1.3,3.2
											c-0.3,1.8-0.7,3.8,0.7,3.8c1.4,0,11.8-5.6,13.7-5.3c1.9,0.3,0.5,1.7,0.5,1.7s2.6-1.3,3.4-0.4c0.2,0.2,0.3,1.1-0.8,1.9
											c-2.4,1.7-7.7,5.1-7.7,5.1c0.3-0.2,7.1-3.9,8.2-4.3c1.4-0.6,2.4-0.1,2.7,0.8c0.4,1.2-7.9,6.1-8.1,6.5c0,0,4.7-3,6.1-2.2
											c1.4,0.8-1.4,2.8-4.3,4.1c-2.6,1.2-7.4,4.3-10.2,5.2c-3.4,1.2-6,1.2-8.3-1.2C388.4,135.5,387.9,132.8,387.9,132.8z"/>
									</g>
								</g>
							</g>
						</g>
					</g>
				</g>
				<path class="st8" d="M403.5,126.3c0,0-0.1,0-0.1-0.1c0-0.1,0-0.1,0-0.2c1.9-1.3,3.9-2.5,6-3.5c0.1,0,0.1,0,0.2,0.1
					c0,0.1,0,0.1-0.1,0.2C407.5,123.8,405.5,125,403.5,126.3C403.6,126.2,403.6,126.3,403.5,126.3z"/>
				<path class="st8" d="M405.8,133.4c-0.1,0-0.1,0-0.1-0.1c-0.7-2.9-2.2-5.6-4.3-7.6c0,0-0.1-0.1,0-0.2c0,0,0.1-0.1,0.2,0
					c2.2,2.1,3.7,4.8,4.4,7.7C405.9,133.3,405.8,133.4,405.8,133.4C405.8,133.4,405.8,133.4,405.8,133.4z"/>
				<path class="st8" d="M393.1,134c0,0-0.1,0-0.1-0.1c0-0.1,0-0.1,0-0.2c1-0.6,1.8-1.6,2.2-2.7c0.4-1.1,0.4-2.4,0-3.5
					c0-0.1,0-0.1,0.1-0.2c0.1,0,0.1,0,0.2,0.1c0.4,1.2,0.4,2.5,0,3.7C395.1,132.3,394.2,133.4,393.1,134
					C393.1,134,393.1,134,393.1,134z"/>
			</g>
		</g>
		<g>
			<polygon class="st26" points="414.4,284.5 418.3,272.8 390,257 383.9,274.8 			"/>
			<g>
				<path class="st6" d="M414.8,268.7l-2.1,3.9c-0.5,0.9-0.5,1.9,0,2.8c1.8,3.9-0.2,4.9-4.4,5.8c-1,1.4,0.5,2.8,0.9,3.2l9,8.5
					c0.7,0.7,1.9,0.7,2.7,0c0.1-0.1,0.2-0.3,0.3-0.4c2.5-4.7,3.7-6.9,6.9-12.7l9.6-17.9c2.6-4.9-1.7-8.5-3.3-6.8
					c-6.8,7.9-12.9,12.9-17,14.3C416.6,269.6,416.6,268.9,414.8,268.7z"/>
				<path class="st3" d="M422.3,261.9c-0.1-0.6-0.4-1.1-0.9-1.3c-0.3-0.2-0.6-0.2-0.9-0.1c-1.5,0.7-1.8,6.8-1.9,7.5
					c0,0.1,0,0.1,0.1,0.2c0.1,0.1,0.2,0.1,0.3,0c0.9-1,1.7-2.2,2.4-3.4C422.1,264,422.4,263,422.3,261.9z M420.8,261
					c0.1-0.1,0.3-0.1,0.4,0c0.4,0.2,0.6,0.6,0.7,1c0.2,1.5-1.5,4-2.6,5.3C419.4,264.8,420,261.4,420.8,261z"/>
				<path class="st3" d="M419.2,268.1c0.2-1.8-0.6-6.1-1.9-6.6c-0.3-0.1-0.7-0.1-1.1,0.5c-1.7,2.5,2.4,6.2,2.6,6.3
					c0.1,0.1,0.2,0.1,0.3,0.1C419.1,268.3,419.1,268.2,419.2,268.1L419.2,268.1z M416.5,262.3c0.3-0.5,0.5-0.4,0.6-0.3
					c0.8,0.3,1.6,3.5,1.6,5.6c-0.9-0.9-3.2-3.4-2.3-5.1L416.5,262.3z"/>
				<path class="st3" d="M419.6,272.3c-0.1,0-0.2,0-0.2-0.1c-0.8-1.4-0.9-3.1-0.4-4.6c0-0.1,0.2-0.2,0.3-0.1c0.1,0,0.2,0.2,0.1,0.3
					c-0.5,1.4-0.4,2.9,0.3,4.2c0.1,0.1,0,0.3-0.1,0.3C419.7,272.3,419.7,272.3,419.6,272.3z"/>
				<path class="st3" d="M422.7,270.8c-0.1,0-0.2,0-0.2-0.1c-0.8-1.4-0.9-3.1-0.4-4.6c0-0.1,0.2-0.2,0.3-0.1c0.1,0,0.2,0.2,0.1,0.3
					c-0.5,1.4-0.4,2.9,0.3,4.2c0.1,0.1,0,0.3-0.1,0.3C422.8,270.8,422.8,270.8,422.7,270.8z"/>
				<path class="st3" d="M425.8,268.7c-0.1,0-0.2,0-0.2-0.1c-0.8-1.4-0.9-3.1-0.4-4.6c0-0.1,0.2-0.2,0.3-0.1c0.1,0,0.2,0.2,0.1,0.3
					c-0.5,1.4-0.4,2.9,0.3,4.2c0.1,0.1,0,0.3-0.1,0.3C425.9,268.7,425.9,268.7,425.8,268.7z"/>
			</g>
			<polygon class="st8" points="405,265.3 408.5,267.3 403.1,280.9 399,279.6 			"/>
			<path class="st6" d="M326.4,205.9l14.1,8.6c18.1,0.9,79.4,1.4,79.5,23.2c6,25.7-49.4,23.2-86.3,23.6c-0.2,0-0.5,0.2-0.6,0.4
				c-0.3,0.5-3.9,2.3-8.5,3.1c-5.6,0.9-18.5,1.7-26.8,0.4c-14.3-2.3-18.4-15.8-15.6-34.9c1.1-7.8,5.4-14.2,6.8-24L326.4,205.9z"/>
			<path class="st19" d="M287.7,234.9l0.1,0.9c0,0,46.6-7.7,75,11c0,0,30.8-7.6,37-13.3c-34.1,17.9-64.6-2.8-64.6-2.8l-15-6.7
				C307.9,218.4,295.5,222.6,287.7,234.9z"/>
			<polygon class="st26" points="340.5,265.1 345.9,276.2 377.2,267.8 369.1,250.8 			"/>
			<g>
				<path class="st6" d="M352.8,276l-2.6-3.5c-0.6-0.8-1.5-1.2-2.5-1.3c-4.3,0-4.3-2.3-3.3-6.5c-0.9-1.5-2.8-0.7-3.3-0.5l-11.6,4.4
					c-1,0.4-1.5,1.4-1.1,2.4c0.1,0.2,0.2,0.3,0.3,0.5c3.1,4.3,4.6,6.3,8.5,11.7l11.9,16.4c3.3,4.5,8.4,2.1,7.5,0
					c-4.2-9.6-6-17.2-5.5-21.5C351.2,277.2,351.9,277.5,352.8,276z"/>
				<path class="st3" d="M355.6,285.7c0.5,0.2,1.1,0.1,1.6-0.2c0.3-0.1,0.4-0.4,0.4-0.7c0-1.7-5.3-4.6-5.9-4.9c-0.1,0-0.1-0.1-0.2,0
					c-0.1,0-0.2,0.2-0.2,0.3c0.5,1.3,1.2,2.5,2,3.6C353.9,284.6,354.7,285.3,355.6,285.7z M357.1,284.7c0,0.1-0.1,0.3-0.2,0.3
					c-0.3,0.2-0.8,0.3-1.2,0.2c-1.5-0.5-2.9-3.1-3.6-4.6C354.3,281.8,357.1,283.7,357.1,284.7z"/>
				<path class="st3" d="M351.4,280.2c1.5,0.9,5.7,2.1,6.8,1.1c0.2-0.2,0.4-0.6,0-1.2c-1.5-2.6-6.6-0.5-6.8-0.4
					c-0.1,0-0.2,0.1-0.2,0.2c0,0.1,0.1,0.1,0.1,0.1L351.4,280.2z M357.8,280.3c0.3,0.5,0.1,0.6,0.1,0.6c-0.6,0.6-3.9-0.1-5.7-1
					c1.2-0.4,4.4-1.4,5.6,0.1L357.8,280.3z"/>
				<path class="st3" d="M351.8,280.7c-0.1,0-0.1,0-0.2-0.1c-1-1.1-2.5-1.6-3.9-1.5c-0.1,0-0.3-0.1-0.3-0.2c0-0.1,0.1-0.3,0.2-0.3
					c1.6-0.1,3.2,0.5,4.3,1.7c0.1,0.1,0.1,0.3,0,0.4C352,280.7,351.9,280.7,351.8,280.7z"/>
				<path class="st3" d="M351.8,284.1c-0.1,0-0.1,0-0.2-0.1c-1-1.1-2.5-1.6-3.9-1.5c-0.1,0-0.3-0.1-0.3-0.2c0-0.1,0.1-0.3,0.2-0.3
					c1.6-0.1,3.2,0.5,4.3,1.7c0.1,0.1,0.1,0.3,0,0.4C351.9,284.1,351.9,284.1,351.8,284.1z"/>
				<path class="st3" d="M352.4,287.9c-0.1,0-0.1,0-0.2-0.1c-1-1.1-2.5-1.6-3.9-1.5c-0.1,0-0.3-0.1-0.3-0.2c0-0.1,0.1-0.3,0.2-0.3
					c1.6-0.1,3.2,0.5,4.3,1.7c0.1,0.1,0.1,0.3,0,0.4C352.5,287.9,352.5,287.9,352.4,287.9z"/>
			</g>
			<path class="st6" d="M406,264.3c0,0-71.8-40.2-96.5-41c-24.7-0.8-27.5,17.8-18.4,32.2c9.1,14.3,31.8,7.4,31.8,7.4
				s-18-4.6-15.8-9.4c2.2-4.9,8.9,2.7,8.9,2.7s43.6,17.9,82.5,24.3L406,264.3z"/>
			<polygon class="st19" points="369,244.4 392.1,257.8 394.5,257.5 372.7,243.7 			"/>
			<path class="st19" d="M332.3,262.3c0,0-23.3-9.2-23-9.2c0.3,0,14.7,10.8,19.4,10.8L332.3,262.3z"/>
		</g>
		<path class="st3" d="M337.3,136.5c0,0,2.8-0.6,13.1,11.4c7,8.2,17.6,14.1,17.6,14.1c0.9-2,17-25.5,17-25.5l10.2,5.8
			c0,0-15,38.8-24.7,40.3c-9.7,1.5-32.5-18.1-32.5-18.1L337.3,136.5z"/>
		<path class="st3" d="M281.2,150.8c4.4,13.3,4.6,43.5,3.1,60.1h54.9c8.7-33.2,1.2-56.8,0.4-64.6c-0.9-9.5-2.4-9.8-2.4-9.8
			s-10.3-1-19.2-0.9c-6.9,0.3-13.8,1-20.6,2.2c-5.1,0.8-10.1,2-15,3.4c-2.1,0.6-3.4,2.8-2.7,4.9c0,0.1,0,0.1,0.1,0.2
			C280.2,147.8,280.7,149.3,281.2,150.8z"/>
		<path class="st19" d="M284.3,210.9c1.3-15.5,11.4-33.4,9.8-48.9c4.7,6.6,6.2,19.7,8.1,34.2c0.6,4.7,17.8,9.5,18.6,14.4
			L284.3,210.9z"/>
		<path class="st27" d="M293,139.5c-2.6,3.7,28.9,9.6,28.9,9.6s18.4-12-3.1-13.8C314.4,134.9,297,133.8,293,139.5z"/>
		<path class="st3" d="M322.9,155.9c0,0,17-14,8.2-22.4c-8.8-8.4-50.1-12.1-46.6,7c0,0,5.3-1.6,10.7,3.5
			C306.5,154.8,322.9,155.9,322.9,155.9z"/>
		<path class="st19" d="M321.5,151.8c0,0,9.6-7.5,6.2-14.2c-3.4-6.7-23.4-14.1-37.7-4.8c3.4,1.8,6.6,4,9.5,6.5
			C305.2,144.2,321.5,151.8,321.5,151.8z"/>
		<path class="st19" d="M317.9,152.8c0,0.5-0.4,1-0.9,1c-0.5,0-1-0.4-1-0.9c0-0.5,0.4-1,0.9-1c0,0,0,0,0,0
			C317.4,151.8,317.9,152.3,317.9,152.8z"/>
		<path class="st19" d="M327.5,150c0,0.5-0.4,1-0.9,1c0,0,0,0,0,0c-0.5,0.1-1-0.3-1.1-0.8c-0.1-0.5,0.3-1,0.8-1.1c0.1,0,0.2,0,0.2,0
			C327,149.1,327.5,149.5,327.5,150z"/>
		<path class="st6" d="M336.4,159.6c0,0.5-0.4,1-0.9,1c-0.5,0-1-0.4-1-0.9c0-0.5,0.4-1,0.9-1c0,0,0,0,0,0
			C335.9,158.7,336.4,159.1,336.4,159.6z"/>
		<path class="st6" d="M315.7,164.5c0,0.5-0.4,0.9-0.9,0.9c-0.5,0-0.9-0.4-0.9-0.9c0-0.5,0.4-0.9,0.9-0.9l0,0
			C315.3,163.6,315.7,164,315.7,164.5z"/>
		<path class="st6" d="M335.2,160L335.2,160c0,0-3.7-0.5-4.4-5.2c-0.1-2.3-2-4.1-4.3-4.1c-0.2,0-0.4-0.1-0.4-0.3
			c0-0.2,0.1-0.3,0.3-0.4c0,0,0,0,0,0c2.6,0,4.8,2.1,5,4.7c0.6,4.2,3.7,4.6,3.7,4.7c0.2,0,0.3,0.2,0.3,0.4
			C335.6,159.9,335.4,160,335.2,160z"/>
		<path class="st6" d="M314.8,164.5c-0.2,0-0.3-0.1-0.3-0.3c-0.1-2.4,0.8-4.8,2.5-6.6c0.7-0.6,1-1.4,1.1-2.3
			c-0.1-0.9-0.4-1.7-1.1-2.3c-0.2-0.1-0.2-0.3-0.1-0.5c0.1-0.2,0.3-0.2,0.5-0.1c0,0,0,0,0.1,0.1c0.8,0.7,1.2,1.7,1.3,2.8
			c0,1.1-0.5,2.1-1.3,2.8c-1.5,1.6-2.3,3.8-2.3,6.1C315.1,164.3,315,164.5,314.8,164.5L314.8,164.5z"/>
		<g>
			<path class="st3" d="M351.7,236.5l2.8,0.5c0,0-0.8-2.5,9-5.7c9.8-3.2,19.5-5,19.5-5s-17.7-0.9-18.2-0.9c-0.5,0-16.8,5.8-16.8,5.8
				L351.7,236.5z"/>
			<path class="st1" d="M344.7,218.4c0.5,0,38.3,7.8,38.3,7.8s-26.3-1-31.3,10.2l-30.6-12.6C321.1,223.9,329.6,218.2,344.7,218.4z"
				/>
			<path class="st3" d="M408.5,218.4v1.7c0,0-17-2-25.5,6.2l-0.5-3.9l11.3-5.2L408.5,218.4z"/>
			<path class="st1" d="M374.1,210.8c0,0-20.5-5.4-28.1,7.9l37,7.6c0,0,1.7-10.2,25.5-7.8L374.1,210.8z"/>
		</g>
		<path class="st3" d="M280.8,142c-0.9,0.3-6.5,5-6.2,16.1c0.4,16.2,4.4,49.7,6.2,52.8c1.9,3.1,50.8,16.9,51.6,17.7
			c0.7,0.8,3.3-8.5,3.3-8.5l-37.7-23.9c0,0-2.2-33.7-3.1-38.8C293.9,152.3,291.3,138.2,280.8,142z"/>
		<path class="st26" d="M335.2,221.5l2.1,0.9c0,0,10-0.8,12.5,1.7c2.5,2.5,3.9,14,3.9,14l-21.4-9.7L335.2,221.5z"/>
		<g>
			<g>
				<g>
					<g>
						<path class="st26" d="M300.6,140.6c0,0,4.6,3,11,6.9c1.3,0.8,8.2,3.8,9.6,4.3l2.8-2.4c0.1-0.4,0.2-0.9,0.3-1.3
							c0.3-3.1-0.7-7.2-3.5-8.7c-3.1-1.7-4.7-3.3-4.7-6.3c0-1.7,0.3-3.5,0.7-5.3l-3.4-1.4l-13-9.4
							C302.8,123.7,305.8,135.6,300.6,140.6z"/>
					</g>
					<path class="st17" d="M316.1,133.7c-3.4-1.3-7.3-3.9-7.4-7.6c-0.1-1.5,0-3,0.2-4l7.6,7.2C316.2,130.7,316.2,131.7,316.1,133.7z
						"/>
					<path class="st26" d="M296.1,104.7c3,11.3,4,16.1,10.9,21.1c10.4,7.5,23.5,2.2,24-9.5c0.4-10.6-4.5-27.2-16.5-30.2
						C302.6,83.3,293.2,93.5,296.1,104.7z"/>
					<path class="st6" d="M312.2,105.9c0.3,1.2,1.1,2.1,1.8,2c0.8-0.1,1.2-1.2,0.9-2.4c-0.3-1.2-1.1-2.1-1.8-2
						C312.3,103.7,311.9,104.7,312.2,105.9z"/>
					<path class="st6" d="M323.8,103.9c0.3,1.2,1.1,2,1.8,1.9c0.8-0.1,1.2-1.1,0.9-2.3c-0.3-1.2-1.1-2-1.8-1.9
						C323.9,101.7,323.5,102.8,323.8,103.9z"/>
					<path class="st6" d="M308.5,102.2c0.1,0,0.3-0.1,0.4-0.2c1.5-1.9,3.6-1.7,3.6-1.7c0.3,0,0.6-0.2,0.6-0.5c0-0.3-0.2-0.6-0.5-0.6
						c-0.1,0-2.7-0.3-4.6,2.1c-0.2,0.2-0.1,0.6,0.1,0.8C308.2,102.1,308.3,102.2,308.5,102.2z"/>
					<path class="st6" d="M325.7,97.7c0.1-0.1,0.2-0.2,0.2-0.3c0.1-0.3-0.1-0.6-0.4-0.7c-2.9-1-4.6,0.4-4.7,0.5
						c-0.2,0.2-0.2,0.5,0,0.7c0.2,0.2,0.5,0.3,0.7,0.1c0.1-0.1,1.4-1.2,3.7-0.3C325.4,97.8,325.6,97.8,325.7,97.7z"/>
					<path class="st28" d="M319.7,104c0,0,2.5,4,5,6.3c0.4,0.4,0.3,1.1-0.2,1.4c-1.3,0.8-3.1,0.6-3.1,0.6L319.7,104z"/>
				</g>
				<path class="st6" d="M312.7,103.7l2.5-1.1C315.2,102.6,314.1,104.8,312.7,103.7z"/>
				<path class="st6" d="M324.3,101.7l2.5-1.1C326.8,100.7,325.7,102.9,324.3,101.7z"/>
				<path class="st6" d="M301,119.7c-38.4-23.8,4.5-39.9,4.5-39.9c17.2-12.1,17.8,6.3,17.8,6.3c8.6,9-3.6,16.9-3.6,16.9
					c5.1-7.4-2.8-11.8-2.8-11.8c1.2,9.8-8.4,13.7-8.4,13.7c3.8-8.9,1.4-13.5,1.4-13.5c-2.8,15.8-10.7,19-10.7,19L301,119.7z"/>
				<path class="st26" d="M294.2,114.6c1.7,2.1,4.2,3.2,6.3,3.4c3.2,0.3,3.9-4.9,2.4-7.7c-1.4-2.6-4.7-3.9-7.5-2.8
					C292.6,108.6,292.2,112.2,294.2,114.6z"/>
			</g>
		</g>
		<path class="st17" d="M301.8,113.1c-0.1,0-0.2-0.1-0.2-0.2c-0.2-0.9-0.7-1.7-1.4-2.4c-0.4-0.4-1.1-1-2-1.1
			c-0.8-0.1-1.6,0.3-1.9,0.9c-0.1,0.1-0.2,0.2-0.3,0.1c-0.1-0.1-0.2-0.2-0.1-0.3c0.4-0.8,1.4-1.2,2.4-1.1c1,0.1,1.8,0.7,2.3,1.2
			c0.7,0.7,1.2,1.6,1.5,2.6C302.1,112.9,302,113,301.8,113.1C301.8,113.1,301.8,113.1,301.8,113.1z"/>
		<g>
			<path class="st6" d="M321.2,116.5c-0.9,1.1-1.6,2.3-2.3,3.5c-0.2-0.1-0.5-0.2-0.7-0.3c-3.2-1.2-4.2-2.8-4.4-4.2
				c-0.1-0.7,0-1.4,0.2-2.1c0.1-0.4,0.3-0.7,0.5-1.1c1.3,1.6,4.1,3,5.7,3.6C320.8,116.3,321.2,116.5,321.2,116.5z"/>
			<path class="st9" d="M320.2,116l-0.7,1c-3-1.1-4.9-2.3-5.5-3.6c0.1-0.4,0.3-0.7,0.5-1.1C315.8,114.1,318.6,115.4,320.2,116z"/>
			<path class="st25" d="M318.2,119.7c-3.2-1.2-4.2-2.8-4.4-4.2c1.2,0.5,2.3,1.2,3.2,2C317.6,118.1,318.1,118.9,318.2,119.7z"/>
		</g>
	</g>
</g>
<g id="Character_1">
	<g>
		<g>
			<g>
				<g>
					<g>
						<g>
							<polygon class="st29" points="237.2,355.7 250.1,379.2 261.3,375.9 251.1,348.6 							"/>
						</g>
					</g>
				</g>
			</g>
			<g>
				<g>
					<g>
						<g>
							<g>
								<g>
									<g>
										<g>
											<g>
												<g>
													<g>
														<g>
															<path class="st6" d="M252.9,391.9l8-1.7c0,0,0.5-1.6,2.1-2.1c1-0.2,3.5,0.6,3.5,0.6l22.1-4.5c0,0-0.3-1.5-0.7-2.1
																c-0.5-0.7-0.9-1.3-1.4-1.8c-1.7-1.7-4.4-2.1-6.4-2.3c-3.3-0.3-12.9-2.9-12.9-2.9s-2.5-0.9-4.5-3.7
																c-1.1-1.6-2.7-2.4-3.7-2.3c-2,0.2-2.8,1.5-2.7,3.4l0.1,2.2c-1.2,1.5-3.2,1.8-5,0.7c0,0-4.6-1.6-4,0.5
																c0.4,1.2,2.3,6.3,3.7,10.4c0.3,1,0.6,1.9,0.9,2.7l0,0C252.5,390.7,252.9,391.9,252.9,391.9z"/>
														</g>
													</g>
												</g>
											</g>
										</g>
									</g>
									<g>
										<g>
											<g>
												<g>
													<path class="st3" d="M272.3,376.3c-0.1-0.1-0.3,0-0.4,0c-0.5,0.4-0.8,1-1,1.6c-0.1,0.3,0.4,0.5,0.5,0.2
														c0.2-0.6,0.5-1.1,0.9-1.4C272.5,376.6,272.5,376.4,272.3,376.3C272.3,376.3,272.3,376.3,272.3,376.3z"/>
												</g>
											</g>
										</g>
									</g>
									<g>
										<g>
											<g>
												<g>
													<path class="st3" d="M270.4,375.7c-0.1-0.1-0.3,0-0.4,0c-0.5,0.4-0.8,1-1,1.6c-0.1,0.3,0.4,0.5,0.5,0.2
														c0.2-0.6,0.5-1.1,0.9-1.4C270.6,376,270.6,375.8,270.4,375.7C270.4,375.7,270.4,375.7,270.4,375.7z"/>
												</g>
											</g>
										</g>
									</g>
									<g>
										<g>
											<g>
												<g>
													<path class="st3" d="M268.5,375.2c-0.1-0.1-0.3,0-0.4,0c-0.5,0.4-0.8,1-1,1.6c-0.1,0.3,0.4,0.5,0.5,0.2
														c0.2-0.6,0.5-1.1,0.9-1.4C268.7,375.5,268.7,375.3,268.5,375.2C268.5,375.2,268.5,375.2,268.5,375.2z"/>
												</g>
											</g>
										</g>
									</g>
								</g>
							</g>
						</g>
					</g>
				</g>
			</g>
			<path class="st11" d="M263.1,388.1c1-0.2,3.5,0.6,3.5,0.6l22.1-4.5c0,0-0.3-1.5-0.7-2.1c-0.2-0.3-0.4-0.6-0.7-0.9l-35.6,7.3
				c0,0.1,0.1,0.3,0.1,0.4l0,0c0.6,1.8,1,3,1,3l8-1.7C260.9,390.2,261.4,388.5,263.1,388.1z"/>
			<path class="st3" d="M268.3,375.8l-0.1-0.2c-0.2-0.7-0.5-1.5-0.5-2.3c-0.1-0.9,0-1.7,0.3-2.4c0.2-0.5,0.5-0.8,0.9-0.8
				c0.4-0.1,0.8,0.3,1.1,0.6c0.4,0.6,0.5,1.4,0.3,2.2c-0.2,0.8-1.4,2.2-1.7,2.7L268.3,375.8z M268.9,370.3
				C268.9,370.3,268.9,370.3,268.9,370.3c-0.4,0.1-0.6,0.4-0.7,0.7c-0.3,0.6-0.4,1.4-0.3,2.2c0.1,0.7,0.3,1.4,0.5,2
				c0.7-0.8,1.4-1.8,1.5-2.4c0.2-0.7,0.1-1.5-0.2-2C269.5,370.6,269.2,370.3,268.9,370.3z"/>
			<path class="st3" d="M268.1,375.7c-0.7,0-2.3,0-2.9-0.3c-0.8-0.3-1.3-0.9-1.6-1.6c-0.1-0.4-0.2-0.9,0.2-1.2
				c0.3-0.2,0.7-0.3,1.2-0.2c0.7,0.2,1.4,0.6,2,1.3c0.6,0.6,1,1.2,1.5,1.9l0.1,0.2l-0.2,0C268.2,375.7,268.1,375.7,268.1,375.7z
				 M264.4,372.5c-0.2,0-0.4,0-0.5,0.2c-0.2,0.2-0.2,0.6-0.1,0.9c0.2,0.6,0.7,1.2,1.4,1.5c0.5,0.2,1.8,0.3,2.8,0.3
				c-0.4-0.6-0.8-1.1-1.3-1.6c-0.6-0.6-1.3-1-1.9-1.2C264.7,372.6,264.5,372.5,264.4,372.5z"/>
		</g>
		<g>
			<g>
				<g>
					<g>
						<g>
							<polygon class="st29" points="184.1,372.9 178.2,399.1 188.8,404 199.2,376.8 							"/>
						</g>
					</g>
				</g>
			</g>
			<g>
				<g>
					<g>
						<g>
							<g>
								<g>
									<g>
										<g>
											<g>
												<g>
													<g>
														<g>
															<path class="st6" d="M172,410.5l7.2,4c0,0,1.4-0.9,3-0.1c0.9,0.5,2.2,2.8,2.2,2.8l19.6,11.2c0,0,0.8-1.3,0.9-2
																c0.1-0.9,0.2-1.6,0.1-2.3c-0.2-2.4-2-4.5-3.3-5.9c-2.3-2.4-7.8-10.7-7.8-10.7s-1.3-2.3-1-5.8
																c0.2-1.9-0.4-3.5-1.2-4.1c-1.6-1.2-3.1-0.7-4.3,0.7l-1.3,1.7c-1.9,0.3-3.6-0.8-4.2-2.8c0,0-2.4-4.3-3.3-2.3
																c-0.5,1.1-2.4,6.2-4.1,10.2c-0.4,0.9-0.8,1.8-1.1,2.6l0,0C172.5,409.3,172,410.5,172,410.5z"/>
														</g>
													</g>
												</g>
											</g>
										</g>
									</g>
									<g>
										<g>
											<g>
												<g>
													<path class="st3" d="M196.9,411.6c0-0.1-0.2-0.2-0.3-0.2c-0.6,0-1.3,0.2-1.8,0.6c-0.3,0.2,0,0.7,0.3,0.5
														c0.5-0.3,1-0.5,1.6-0.5C196.8,412,196.9,411.8,196.9,411.6C196.9,411.6,196.9,411.6,196.9,411.6z"/>
												</g>
											</g>
										</g>
									</g>
									<g>
										<g>
											<g>
												<g>
													<path class="st3" d="M195.8,409.9c0-0.1-0.2-0.2-0.3-0.2c-0.6,0-1.3,0.2-1.8,0.6c-0.3,0.2,0,0.7,0.3,0.5
														c0.5-0.3,1-0.5,1.6-0.5C195.8,410.3,195.9,410.1,195.8,409.9C195.8,409.9,195.8,409.9,195.8,409.9z"/>
												</g>
											</g>
										</g>
									</g>
									<g>
										<g>
											<g>
												<g>
													<path class="st3" d="M194.7,408.3c0-0.1-0.2-0.2-0.3-0.2c-0.6,0-1.3,0.2-1.8,0.6c-0.3,0.2,0,0.7,0.3,0.5
														c0.5-0.3,1-0.5,1.6-0.5C194.6,408.6,194.7,408.5,194.7,408.3C194.7,408.3,194.7,408.3,194.7,408.3z"/>
												</g>
											</g>
										</g>
									</g>
								</g>
							</g>
						</g>
					</g>
				</g>
			</g>
			<path class="st11" d="M182.1,414.4c0.9,0.5,2.2,2.8,2.2,2.8l19.6,11.2c0,0,0.8-1.3,0.9-2c0.1-0.4,0.1-0.8,0.1-1.1l-31.5-18
				c-0.1,0.1-0.1,0.3-0.2,0.4l0,0c-0.7,1.7-1.2,2.9-1.2,2.9l7.2,4C179.2,414.5,180.6,413.6,182.1,414.4z"/>
			<path class="st3" d="M194.2,408.6l0.1-0.2c0.3-0.7,0.7-1.4,1.1-2.1c0.5-0.7,1.1-1.3,1.8-1.6c0.5-0.2,0.9-0.2,1.2,0
				c0.4,0.3,0.4,0.8,0.4,1.2c-0.1,0.7-0.6,1.4-1.3,1.9c-0.7,0.5-2.5,0.8-3,0.9L194.2,408.6z M197.9,404.7c-0.2,0-0.4,0.1-0.6,0.1
				c-0.6,0.3-1.2,0.8-1.7,1.5c-0.4,0.6-0.7,1.2-1,1.8c1-0.2,2.2-0.5,2.7-0.8c0.6-0.4,1.1-1,1.2-1.7c0.1-0.3,0-0.7-0.3-0.9
				C198.1,404.8,198,404.7,197.9,404.7z"/>
			<path class="st3" d="M194.4,408.6l-0.2-0.2c-0.4-0.4-1.8-1.6-2.1-2.3c-0.3-0.8-0.4-1.6-0.1-2.3c0.2-0.4,0.5-0.8,0.9-0.8
				c0,0,0,0,0,0c0.3,0,0.7,0.2,1,0.6c0.4,0.6,0.6,1.4,0.7,2.3c0,0.8,0,1.6-0.1,2.4L194.4,408.6z M192.9,403.3
				C192.9,403.3,192.9,403.3,192.9,403.3c-0.4,0-0.6,0.3-0.7,0.6c-0.2,0.6-0.2,1.4,0.1,2.1c0.2,0.5,1.1,1.4,1.9,2.1
				c0.1-0.7,0.1-1.4,0.1-2.1c-0.1-0.9-0.3-1.6-0.7-2.2C193.5,403.6,193.2,403.3,192.9,403.3z"/>
		</g>
		<g>
			<path class="st29" d="M194.3,202.2c0,0,3.7,33,4.7,34.8c3.4,6,25.6,16.3,25.6,16.3l11.3-2.4l8.1,6.8l-5.3,4.2l-6.3-2.4
				c-3.4,0.6-6.9,0.9-10.4,0.9c-5.8,0-34-7.1-38.8-15c-4.7-7.9-6.9-44.3-6.9-44.3L194.3,202.2z"/>
			<g>
				<path class="st3" d="M175.9,215.2c0,0-8.7-29,2.1-37c10.8-8,19.5,31.8,19.5,31.8L175.9,215.2z"/>
				<path class="st3" d="M182.8,268.2l-0.1-38.4l-0.8-52.6l-21.6-3.1l-18.4-0.2l-24.9,7.7l-0.5,12.9c0,0,2.6,59.3,2.4,61.1
					c-0.2,2.2-0.7,18.5-0.7,18.5C146.5,280.6,183.2,270.2,182.8,268.2z"/>
				<polygon class="st17" points="182.4,213.6 181.2,188.8 186.8,212.5 				"/>
				<path class="st17" d="M134.3,217.2c0.7-0.1,4.2-1.3,4.2-1.3l-7.9-21.9l10.8,24.2l-6.5,2.6L134.3,217.2z"/>
			</g>
			<g>
				<path class="st29" d="M131.3,199c0,0,5.5,36.7,8.7,40.1c5.4,5.8,32,21.2,32,21.2l13.3-4.7c0.9-0.3,2-0.1,2.7,0.4l9.1,6.9
					l-0.9,0.7c-0.4,0.3-0.9,0.4-1.4,0.2l-1.4-0.7l1.6,1.5l-0.5,0.4c-0.5,0.4-1.2,0.6-1.8,0.4l-4.1-1.1l3.8,2.5c-0.8,0.7-2,1-3.1,0.6
					l-5.9-1.7c-4.1,0.9-8.2,1.5-12.3,1.8c-7,0.4-40.1-11.1-46.2-19.6c-6.2-8.5-12.5-43.6-12.5-43.6L131.3,199z"/>
				<g>
					<path class="st3" d="M113.7,223.4c0,0-8.2-33.2,2.6-41.3c10.8-8,21.6,34,21.6,34L113.7,223.4z"/>
				</g>
			</g>
			<g>
				<g>
					<path class="st6" d="M202.4,265.7H182h-21.7c0,0,0,0,0,0c0,1.6,1.8,2.9,4,2.9H186h12.4c0,0,0,0,0.1,0c0,0,0,0,0,0h34.5
						c2.2,0,3.9-1.3,3.9-2.9H202.4z"/>
				</g>
				<path class="st6" d="M233.6,268.4h-38.5c-0.7,0-1.2-0.4-1.2-1c0-0.1,0-0.2,0.1-0.3l17.1-39.3c0.4-1.1,1.7-1.9,3.2-1.9h38.5
					c0.7,0,1.2,0.4,1.2,0.9c0,0.1,0,0.2-0.1,0.3l-17.1,39.3C236.3,267.6,235,268.4,233.6,268.4z"/>
				<path class="st22" d="M252.8,226h-38.5c-1.5,0-2.8,0.8-3.2,1.9l-16.5,37.8H182h-21.7c0,0,0,0,0,0c0,1.6,1.8,2.9,4,2.9H186h12.4
					c0,0,0,0,0.1,0c0,0,0,0,0,0h34.5c0.7,0,1.3-0.2,1.9-0.4c0.9-0.3,1.6-0.9,1.9-1.7l17.1-39.3c0-0.1,0.1-0.2,0.1-0.3
					C253.9,226.4,253.4,226,252.8,226z"/>
				<path class="st9" d="M229.6,246.9c-0.8,1.9-2.5,3.2-3.8,2.9c-1.3-0.3-1.6-2-0.8-3.9s2.5-3.2,3.8-2.9
					C230.1,243.3,230.5,245,229.6,246.9z"/>
				<g class="st8">
					<path d="M211.1,227.9l-16.5,37.8h1.8l17.9-39.7C212.8,226,211.5,226.8,211.1,227.9z"/>
				</g>
			</g>
		</g>
		<g>
			<g>
				<path class="st6" d="M171.5,128.3l1.2,0.7c1.4,0,2.8,1.1,3.1,2.5c0.3,1.4-0.4,3-1.6,3.6c-0.2,0.1-0.4,0.2-0.5,0.4
					c-0.1,0.3,0.2,0.6,0.5,0.8c1.3,1.1,1.1,3.3,0,4.5c-1.1,1.2-3,1.6-4.7,1.5C169.1,137.7,171.9,133.1,171.5,128.3z"/>
			</g>
			<g>
				<path class="st6" d="M135.3,141.7c-1.8,0.1-3.6-1-4.4-2.7c-0.2-0.5-0.3-1-0.2-1.5c0.2-1.3,1.8-2,3.1-2.3
					c-1.5-0.4-2.4-1.8-2.7-3.3c-0.1-0.7-0.1-1.4,0.1-2c0.4-1.1,1.3-1.9,2.4-2.3c1.1-0.4,2.2-0.5,3.4-0.7l6.6,21
					c-1.5,0.3-3,0.5-4.5,0.3c-1.5-0.3-3-1-3.8-2.3C134.4,144.7,134.4,142.9,135.3,141.7z"/>
			</g>
			<path class="st29" d="M139,174.8c6.1-5.2,5.8-19.7,4.7-27.6l17.4,15.1c-0.4,0.9-0.8,1.8-1.1,2.7c-0.6,1.7-0.7,3.5-0.4,5.2
				c0.3,1.4,1.9,5.5,1.9,5.5s0.9,4.5-11,4.3C145.4,180.5,139,174.8,139,174.8z"/>
			<path class="st19" d="M146.9,155.2c-1,9.2,8.2,13.6,12.8,15.1c-0.3-1.8-0.2-3.6,0.4-5.2L146.9,155.2z"/>
			<g>
				<g>
					<path class="st29" d="M140.8,140.3c2.2,10.9,3.1,17,9.6,21.9c9.7,7.3,22.6,0.6,23.9-10.7c1.1-10.2-2.6-26.2-14.2-29.1
						C148.6,119.7,138.6,129.5,140.8,140.3z"/>
					<path class="st6" d="M137.6,127.4c0.7-6.2,16.3-8.3,21-5.8c0.7,0.4-7.9,6.1-7.4,5.8l-4.1,2c-0.7-0.1-1.9,0.9-2.3,3
						c0,0,2.7,16.7-1.5,22.2c-4.2-1.4-5.3-8-7.1-11.8C133.6,137.1,130.2,128.8,137.6,127.4z"/>
					<path class="st29" d="M137.5,150c1.3,2.7,3.7,4.6,6.1,5.4c3.6,1.2,4.4-2.5,3.6-5.9c-0.7-3.1-2.1-6.7-5.8-6.4
						C137.7,143.3,136.1,146.9,137.5,150z"/>
					<path class="st6" d="M155.9,140.9c0.1,1.1,0.9,1.9,1.6,1.8c0.8-0.1,1.2-1.1,1.1-2.2c-0.1-1.1-0.9-1.9-1.6-1.8
						C156.3,138.8,155.8,139.8,155.9,140.9z"/>
					<path class="st6" d="M167.3,140.2c0.1,1.1,0.9,1.9,1.6,1.8c0.8-0.1,1.2-1.1,1.1-2.2c-0.1-1.1-0.9-1.9-1.6-1.8
						C167.6,138.1,167.1,139.1,167.3,140.2z"/>
					<path class="st30" d="M164.9,140c0,0,4.4,5.1,5.9,7.2c-1.4,1.6-4.3,1.3-4.3,1.3L164.9,140z"/>
					<path class="st6" d="M153.8,136.5c0.2,0,0.4,0,0.5-0.1c1.7-1.7,3.7-1.3,3.7-1.3c0.3,0.1,0.6-0.1,0.6-0.4
						c0.1-0.3-0.1-0.6-0.4-0.6c-0.1,0-2.6-0.5-4.7,1.6c-0.2,0.2-0.2,0.5,0,0.7C153.6,136.4,153.7,136.5,153.8,136.5z"/>
					<path class="st17" d="M145.3,149.5c-0.1,0-0.2-0.1-0.2-0.2c-0.2-0.9-0.7-1.7-1.3-2.4c-0.4-0.4-1.1-1-2-1.1
						c-0.8-0.1-1.5,0.3-1.8,0.8c-0.1,0.1-0.2,0.2-0.3,0.1c-0.1-0.1-0.2-0.2-0.1-0.3c0.4-0.8,1.4-1.2,2.3-1.1c1,0.1,1.8,0.7,2.3,1.2
						c0.7,0.7,1.2,1.6,1.5,2.6C145.6,149.4,145.5,149.5,145.3,149.5C145.3,149.5,145.3,149.5,145.3,149.5z"/>
					<path class="st6" d="M173,134.8c0.1,0,0.2-0.1,0.3-0.2c0.2-0.2,0.1-0.6-0.1-0.7c-2.4-1.8-4.7-0.9-4.9-0.9
						c-0.3,0.1-0.4,0.4-0.3,0.7c0.1,0.3,0.4,0.4,0.7,0.3c0.1,0,1.9-0.7,3.8,0.8C172.6,134.9,172.8,134.9,173,134.8z"/>
				</g>
				<g>
					<path class="st6" d="M133.9,122.4c0.6-2.6,3.9-3.6,6.5-3.3c-0.5-3.1,3.5-5.3,6.1-5.6c2.7-0.2,3.8,0.7,3.8,0.7
						c-0.2,0.1,0.6-1.6,1.2-2.3c2.1-2.6,5.8-3.7,8.9-2.7c3.1,1,5.6,4,5.9,7.3c1.5-1.9,4.5-2.1,6.3-0.6c1.8,1.6,2,4.7,0.5,6.5
						c2-0.1,3.9,1.8,3.9,3.8c0,2.1-1.9,3.9-3.9,3.8c0.1,2.3,0.2,5.2,0.4,7.5l-4.1-8.1c-1.7-0.4-2.1-1.1-2.6-2.8
						c-0.9,2.3-2.8,2.3-5.3,2.5c-2.4,0.2-4.9-1.1-6.2-3.3c-1,2.4-3.2,4.4-5.7,4.6c-2.5,0.2-5.2-1.7-5.5-4.3
						c-1.2,2.4-4.3,3.6-6.8,2.6C134.9,128,133.4,125,133.9,122.4z"/>
				</g>
				<g>
					<path class="st6" d="M166.1,152.3c-0.9,1.2-1.8,2.5-2.5,3.8c-0.3-0.1-0.5-0.2-0.8-0.3c-3.4-1.3-4.6-3-4.8-4.6
						c-0.1-0.7,0-1.5,0.2-2.2c0.1-0.4,0.3-0.8,0.6-1.1c1.4,1.8,4.5,3.2,6.2,3.9C165.7,152.1,166.1,152.3,166.1,152.3z"/>
					<path class="st9" d="M165,151.8l-0.8,1.1c-3.2-1.2-5.3-2.5-5.9-3.9c0.1-0.4,0.3-0.8,0.6-1.1C160.2,149.7,163.3,151.1,165,151.8
						z"/>
					<path class="st25" d="M162.8,155.8c-3.4-1.3-4.6-3-4.8-4.6c1.3,0.5,2.5,1.3,3.5,2.2C162.2,154.1,162.6,154.9,162.8,155.8z"/>
				</g>
			</g>
		</g>
		<g>
			<g id="freepik--Character--inject-281_00000005252941569225955230000005281706764941849498_">
				<path class="st6" d="M225.5,305.6c-0.4,4.2-1.3,9.9-2.4,14c-3,11.5-6.4,22.5-10.6,33.9c-8.2,22.5-14.9,43.4-14.9,43.4l-20.9-6.3
					c0,0,13.9-65.2,23.2-71.9h-57.3c-1.1,0-2.1-0.1-3.2-0.2c9.9-1.3,25.2-7.4,39.5-13.4c12.6-5.4,24.4-10.8,30.8-12.8l0,0
					C217.4,295.7,226.1,299,225.5,305.6z"/>
				<path class="st31" d="M209.6,292.4c-6.4,2.1-18.2,7.4-30.8,12.8c-14.3,6.1-29.6,12.2-39.5,13.4c-16.6-2.2-22.9-22-5.5-44.9
					c11.3,0,22.6,10.8,22.6,10.8S190.6,284.4,209.6,292.4z"/>
				<path class="st6" d="M256.3,362.5l-13.9,8.4c0,0-11.6-24.3-22.6-51.7c1.1-4.1,1.9-8.2,2.3-12.4c0.6-6.6-4.6-11.2-12.4-14.5l0,0
					c-6.4,2.1-18.2,7.4-30.8,12.8c-14.3,6.1-29.6,12.2-39.5,13.4c-1.1,0.2-2.3,0.2-3.4,0.2c-19,0-25.5-16.6-17.9-44.8
					c11.3,0,30.6-1.2,30.6-1.2s37.3-9,64.1-5.9c13.1,1.5,23.6,11.3,26.2,24.2C245.9,325.4,256.3,362.5,256.3,362.5z"/>
				<path class="st6" d="M258.5,363.6l-16,7.4c0,0-11.6-24.3-22.6-51.7c1.1-4.1,1.9-8.2,2.3-12.4c0.6-6.6-4.6-11.2-12.4-14.5l0,0
					c-6.4,2.1-18.2,7.4-30.8,12.8c-14.3,6.1-29.6,12.2-39.5,13.4c-1.1,0.2-2.3,0.2-3.4,0.2c-19,0-25.5-16.6-17.9-44.8
					c11.3,0,30.6-1.2,30.6-1.2s37.3-9,64.1-5.9c13.1,1.5,23.6,11.3,26.2,24.2C245.9,325.4,258.5,363.6,258.5,363.6z"/>
			</g>
			<path class="st19" d="M225.5,305.6c-0.4,4.2-1.3,9.9-2.4,14c-3,11.5-6.4,22.5-10.6,33.9c-8.2,22.5-14.9,43.4-14.9,43.4l-20.9-6.3
				c0,0,13.9-65.2,23.2-71.9h-57.3c-1.1,0-2.1-0.1-3.2-0.2c9.9-1.3,25.2-7.4,39.5-13.4c12.6-5.4,24.4-10.8,30.8-12.8l0,0
				C217.4,295.7,226.1,299,225.5,305.6z"/>
		</g>
		<ellipse class="st9" cx="161.6" cy="220.4" rx="5.1" ry="16.2"/>
	</g>
</g>
</svg>
